<svg width="183" height="35" viewBox="0 0 183 35" fill="none" xmlns="http://www.w3.org/2000/svg">
<g clip-path="url(#clip0_23_837)">
<path d="M58.5178 21.3411H59.7035L59.2114 25.6713C57.422 26.5238 55.3193 27.0849 52.4563 27.0849C46.5499 27.0849 43.2615 23.0689 43.2615 18.4469C43.2615 12.7252 47.3998 9.13578 52.6346 9.13578C55.6768 9.13578 57.6237 9.96606 58.7865 10.7291L58.921 14.5884H57.7574C56.7737 11.7168 55.0727 10.6171 52.4109 10.6171C48.0931 10.6171 46.5274 13.8258 46.5274 17.5723C46.5274 21.7455 48.4734 25.6044 52.9254 25.6044C56.1247 25.6041 57.4887 24.1687 58.5178 21.3411Z" fill="#001A96"/>
<path d="M61.4922 21.0949C61.4922 17.1457 64.4227 14.6549 67.9798 14.6549C71.6036 14.6549 74.0417 17.1904 74.0417 20.6457C74.0417 24.5945 71.0891 27.0849 67.5324 27.0849C63.9078 27.0849 61.4922 24.5502 61.4922 21.0949ZM71.1786 21.4313C71.1786 18.4248 69.8146 16.0914 67.3532 16.0914C65.2726 16.0914 64.3335 17.8636 64.3335 20.3093C64.3335 23.3154 65.7201 25.6488 68.1586 25.6488C70.2388 25.6488 71.1786 23.8992 71.1786 21.4313Z" fill="#001A96"/>
<path d="M84.3985 24.8862C83.4815 26.0303 82.0721 27.0849 80.216 27.0849C78.0683 27.0849 76.5472 26.0081 76.5472 23.3831V17.4599C76.5472 16.6969 76.2114 16.4057 75.182 16.2707L74.7803 16.2034V15.2161L78.6724 14.6549H79.3436L79.2311 16.9661V23.0016C79.2311 24.5502 80.0814 25.1557 81.2884 25.1557C82.5416 25.1557 83.5482 24.5272 84.3985 23.8766V17.4599C84.3985 16.6969 84.0627 16.4057 83.0336 16.2707L82.6529 16.2034V15.2161L86.5462 14.6549H87.1948L87.0824 16.9661V24.1683C87.0824 24.9313 87.3286 25.1553 88.2906 25.2447L88.8726 25.2898V26.2994L84.7568 27.0846H84.286L84.3985 24.8862Z" fill="#001A96"/>
<path d="M94.4472 18.1778C95.5429 16.0689 96.5491 14.6549 98.2501 14.6549C98.7867 14.6549 99.1214 14.7898 99.3451 14.9695V17.3697H98.4959C97.064 17.3697 95.8566 17.6618 94.4472 19.2096V24.5272C94.4472 25.6266 95.0067 25.6943 96.5945 25.8736V26.8606H90.0623V25.8736C91.0917 25.739 91.7625 25.6266 91.7625 24.5945V17.2581L90.1739 16.3827V15.7772L93.7531 14.6331H94.5585L94.4472 18.1778Z" fill="#001A96"/>
<path d="M100.53 25.9183L100.396 22.9339H101.559C101.985 24.8411 103.013 25.8281 104.848 25.8281C106.323 25.8281 107.264 25.2 107.264 23.9661C107.264 22.9336 106.525 22.5524 105.296 22.2157L103.685 21.7447C101.761 21.2061 100.53 20.3311 100.53 18.2C100.53 15.9787 102.208 14.6545 104.848 14.6545C106.459 14.6545 107.734 15.0138 108.762 15.6193V18.3567H107.643C107.286 16.6293 106.323 15.9114 104.736 15.9114C103.595 15.9114 102.812 16.4496 102.812 17.5264C102.812 18.424 103.326 18.8055 104.4 19.1197L106.146 19.6132C108.293 20.1966 109.523 21.1388 109.523 23.3598C109.523 25.7157 107.621 27.0846 104.825 27.0846C102.947 27.0849 101.47 26.5914 100.53 25.9183Z" fill="#001A96"/>
<path d="M121.983 19.4569V20.1301H113.437C113.437 23.0693 114.802 24.8866 117.62 24.8866C119.343 24.8866 120.551 24.0788 121.289 23.1591L122.005 23.4955C121.468 25.2455 119.902 27.0853 116.726 27.0853C113.146 27.0853 110.932 24.5949 110.932 21.2524C110.932 17.3032 113.527 14.6557 116.971 14.6557C120.26 14.6553 121.983 16.7421 121.983 19.4569ZM113.505 18.9634H119.231C119.231 17.3476 118.291 16.0914 116.436 16.0914C114.781 16.0914 113.728 17.2807 113.505 18.9634Z" fill="#001A96"/>
<path d="M142.109 18.6041H132.759V23.989C132.759 25.4473 133.519 25.6943 135.197 25.7616V26.8606H127.39V25.7616C129.068 25.6943 129.829 25.4473 129.829 23.989V12.2325C129.829 10.7742 129.068 10.5272 127.39 10.4596V9.36056H135.197V10.4596C133.519 10.5272 132.759 10.7738 132.759 12.2325V17.2581H142.109V12.2325C142.109 10.7742 141.348 10.5272 139.671 10.4596V9.36056H147.479V10.4596C145.801 10.5272 145.041 10.7738 145.041 12.2325V23.989C145.041 25.4473 145.802 25.6943 147.479 25.7616V26.8606H139.671V25.7616C141.348 25.6943 142.109 25.4473 142.109 23.989V18.6041H142.109Z" fill="#001A96"/>
<path d="M159.347 19.4569V20.1301H150.802C150.802 23.0693 152.166 24.8866 154.985 24.8866C156.707 24.8866 157.916 24.0788 158.653 23.1591L159.369 23.4955C158.832 25.2455 157.266 27.0853 154.09 27.0853C150.511 27.0853 148.296 24.5949 148.296 21.2524C148.296 17.3032 150.89 14.6557 154.336 14.6557C157.625 14.6553 159.347 16.7421 159.347 19.4569ZM150.87 18.9634H156.596C156.596 17.3476 155.656 16.0914 153.799 16.0914C152.144 16.0914 151.093 17.2807 150.87 18.9634Z" fill="#001A96"/>
<path d="M164.988 18.1778C166.084 16.0689 167.091 14.6549 168.791 14.6549C169.327 14.6549 169.663 14.7898 169.886 14.9695V17.3697H169.037C167.605 17.3697 166.398 17.6618 164.988 19.2096V24.5272C164.988 25.6266 165.547 25.6943 167.136 25.8736V26.8606H160.604V25.8736C161.633 25.739 162.304 25.6266 162.304 24.5945V17.2581L160.715 16.3827V15.7772L164.294 14.6331H165.1L164.988 18.1778Z" fill="#001A96"/>
<path d="M170.449 21.0949C170.449 17.1457 173.38 14.6549 176.937 14.6549C180.562 14.6549 183 17.1904 183 20.6457C183 24.5945 180.047 27.0849 176.49 27.0849C172.866 27.0849 170.449 24.5502 170.449 21.0949ZM180.136 21.4313C180.136 18.4248 178.771 16.0914 176.311 16.0914C174.231 16.0914 173.291 17.8636 173.291 20.3093C173.291 23.3154 174.678 25.6488 177.117 25.6488C179.197 25.6488 180.136 23.8992 180.136 21.4313Z" fill="#001A96"/>
<path d="M17.2687 4.93461L0 0V28.9372L17.2687 35L34.5369 28.9372V0L17.2687 4.93461ZM23.4527 26.8606L17.2687 22.9666L11.085 26.8606L12.8667 19.7583L7.26348 15.0632L14.5475 14.5678L17.269 7.77194L19.9898 14.5678L27.2746 15.0632L21.6703 19.7583L23.4527 26.8606Z" fill="#001A96"/>
</g>
<defs>
<clipPath id="clip0_23_837">
<rect width="183" height="35" fill="white"/>
</clipPath>
</defs>
</svg>
