<svg width="184" height="43" viewBox="0 0 184 43" fill="none" xmlns="http://www.w3.org/2000/svg">
<path d="M0.19043 22.8338C0.19043 15.6286 6.01277 9.84166 13.2927 9.84166C15.4816 9.82614 17.6398 10.3618 19.5731 11.4004C21.5063 12.439 23.1536 13.9479 24.3667 15.791L18.9084 18.9941C18.2768 18.0811 17.4362 17.3363 16.4583 16.8233C15.4803 16.3104 14.3942 16.0444 13.2927 16.0483C9.54941 16.0483 6.48167 19.2047 6.48167 22.8338C6.48167 26.463 9.54941 29.6193 13.2927 29.6193C14.4462 29.6269 15.5823 29.3353 16.5927 28.7723C17.6031 28.2093 18.454 27.3938 19.0642 26.4035L24.4685 29.6644C23.2702 31.5615 21.6166 33.1208 19.6619 34.1971C17.7072 35.2733 15.515 35.8315 13.2895 35.8196C6.01277 35.826 0.19043 29.9281 0.19043 22.8338Z" fill="#2668B8"/>
<path d="M25.5828 22.8338C25.5828 15.6801 31.4051 9.89472 38.685 9.89472C46.0158 9.89472 51.8397 15.6833 51.8397 22.8338C51.8397 29.9345 46.0158 35.826 38.685 35.826C31.4051 35.826 25.5828 29.9281 25.5828 22.8338ZM45.5485 22.8338C45.5485 19.2578 42.4807 16.1014 38.685 16.1014C34.9417 16.1014 31.874 19.2578 31.874 22.8338C31.874 26.463 34.9417 29.6193 38.685 29.6193C42.4871 29.6193 45.5485 26.463 45.5485 22.8338Z" fill="#0056D2"/>
<path d="M157.708 23.0445C157.708 15.2074 163.999 9.89472 169.72 9.89472C173.619 9.89472 175.856 11.1039 177.362 13.4193L177.962 10.3642H183.809V35.3517H177.962L177.207 32.779C175.492 34.6731 173.358 35.834 169.72 35.834C164.104 35.826 157.708 30.8285 157.708 23.0445ZM177.674 22.9914C177.667 21.1577 176.94 19.4018 175.654 18.1101C174.367 16.8185 172.626 16.0968 170.813 16.1038C169 16.1108 167.264 16.846 165.988 18.1477C164.711 19.4493 163.997 21.2107 164.004 23.0445C164.004 26.516 167.072 29.6193 170.817 29.6193C174.608 29.6193 177.674 26.516 177.674 22.9914Z" fill="#0056D2"/>
<path d="M150.522 13.2601V10.3658H144.128V35.3517H150.522V21.8884C150.522 17.838 152.5 15.7348 155.927 15.7348C156.154 15.7348 156.37 15.7508 156.581 15.7717L157.767 9.74036C154.434 9.75804 152.018 10.9142 150.522 13.2601Z" fill="#0056D2"/>
<path d="M86.2635 13.2618V10.3675L79.8689 10.3819L79.9229 35.3645L86.3175 35.3501L86.2825 21.8884C86.273 17.8396 88.2456 15.7316 91.6757 15.7235C91.8945 15.7242 92.1131 15.7365 92.3306 15.7605L93.51 9.72267C90.172 9.75 87.7528 10.9109 86.2635 13.2618Z" fill="#0056D2"/>
<path d="M54.0554 25.6735V10.3675H60.4484V24.8856C60.4484 28.0934 62.2159 29.9876 65.2836 29.9876C68.7154 29.9876 70.6879 27.8828 70.6879 23.8324V10.3675H77.0841V35.3517H70.6927V32.4574C69.1859 34.8243 66.7412 35.982 63.3619 35.982C57.6429 35.9836 54.0554 31.7756 54.0554 25.6735Z" fill="#0056D2"/>
<path d="M116.323 22.8628C116.337 15.8666 121.287 9.88025 129.137 9.89472C136.417 9.90919 141.553 15.8087 141.535 22.7583C141.536 23.4454 141.483 24.1315 141.376 24.81L122.555 24.7746C123.277 27.7734 125.716 29.9345 129.409 29.9425C131.644 29.9425 134.038 29.1096 135.497 27.2187L139.858 30.7562C137.615 33.9608 133.659 35.8469 129.45 35.8389C122.019 35.8131 116.31 30.1741 116.323 22.8628ZM135.098 20.2676C134.738 17.7431 132.143 15.791 129.075 15.7862C126.111 15.7862 123.717 17.5646 122.776 20.245L135.098 20.2676Z" fill="#0056D2"/>
<path d="M93.5481 29.9056L99.2321 26.8955C100.172 28.9553 102.05 30.1693 104.713 30.1693C107.165 30.1693 108.105 29.3782 108.105 28.2687C108.105 24.2488 94.6401 26.6849 94.6401 17.4955C94.6401 12.4272 99.0239 9.73553 104.45 9.73553C108.574 9.73553 112.226 11.5831 114.21 15.0144L108.577 18.0293C107.742 16.3394 106.177 15.3891 104.193 15.3891C102.263 15.3891 101.322 16.0757 101.322 17.2366C101.322 21.1439 114.787 18.6628 114.787 28.0098C114.787 32.8674 110.874 35.8228 104.559 35.8228C99.1829 35.818 95.4253 34.0235 93.5481 29.9056Z" fill="#0056D2"/>
<path d="M0.19043 22.8338C0.19043 15.6286 6.01277 9.84166 13.2927 9.84166C15.4816 9.82614 17.6398 10.3618 19.5731 11.4004C21.5063 12.439 23.1536 13.9479 24.3667 15.791L18.9084 18.9941C18.2768 18.0811 17.4362 17.3363 16.4583 16.8233C15.4803 16.3104 14.3942 16.0444 13.2927 16.0483C9.54941 16.0483 6.48167 19.2047 6.48167 22.8338C6.48167 26.463 9.54941 29.6193 13.2927 29.6193C14.4462 29.6269 15.5823 29.3353 16.5927 28.7723C17.6031 28.2093 18.454 27.3938 19.0642 26.4035L24.4685 29.6644C23.2702 31.5615 21.6166 33.1208 19.6619 34.1971C17.7072 35.2733 15.515 35.8315 13.2895 35.8196C6.01277 35.826 0.19043 29.9281 0.19043 22.8338Z" fill="#0056D2"/>
</svg>
