<svg width="155" height="35" viewBox="0 0 155 35" fill="none" xmlns="http://www.w3.org/2000/svg">
<path d="M27.4657 18.6334C27.4146 18.9609 27.3487 19.2831 27.2681 19.6001C29.6995 18.0288 31.8729 16.0911 33.7111 13.8558C33.5661 13.0765 33.3664 12.3083 33.1135 11.557C31.7384 14.279 29.8157 16.688 27.4657 18.6334Z" fill="#5D00FF"/>
<path d="M27.5893 16.7378C29.528 14.5947 31.1085 12.1535 32.2701 9.50822C31.9117 8.77743 31.5013 8.0733 31.0419 7.40125C30.4471 10.3805 29.2464 13.2061 27.5142 15.7031C27.5556 16.0433 27.5807 16.3882 27.5893 16.7378Z" fill="#5D00FF"/>
<path d="M33.9811 16.1913C32.56 18.1987 29.5643 20.2242 26.4884 21.6991C26.3435 21.9898 26.1858 22.2725 26.0153 22.5474C28.6513 21.7 31.1511 20.4769 33.4373 18.9161C33.2435 19.9885 32.9254 21.0348 32.4896 22.0339C29.9824 23.2044 27.3151 23.9965 24.575 24.3842C24.3209 24.6435 24.0536 24.8897 23.7743 25.1217C26.4014 25.1138 29.0105 24.6893 31.5043 23.864C30.8414 24.8857 30.038 25.8093 29.1176 26.6074C26.7661 26.8128 24.3976 26.7009 22.076 26.2748C21.7768 26.438 21.4691 26.5869 21.1529 26.7214C23.031 27.4776 25.0133 27.9444 27.0317 28.1058C26.2265 28.579 25.3789 28.9762 24.5 29.2923C22.6883 28.8006 20.926 28.1428 19.2353 27.3274C18.8439 27.4109 18.4479 27.4722 18.0495 27.5108C19.42 28.4363 20.8744 29.2314 22.3935 29.8856C21.5382 30.0634 20.6679 30.1599 19.7944 30.1737C19.6194 30.1759 19.445 30.1746 19.271 30.1698C18.1374 29.3641 17.0633 28.4779 16.057 27.5182C15.5731 27.4749 15.0927 27.3983 14.6193 27.2889C15.433 28.2379 16.3101 29.1308 17.2446 29.9614C16.2424 29.7807 15.2641 29.4864 14.3288 29.0841C13.7754 28.3176 13.2679 27.519 12.8089 26.6926C12.3543 26.4956 11.9141 26.2668 11.4918 26.0079C11.8265 26.7548 12.2 27.4838 12.6107 28.1919C11.7142 27.6403 10.8876 26.9828 10.1487 26.2335C9.77873 25.5506 9.46016 24.8412 9.19567 24.111C8.1299 22.9421 7.34025 21.5492 6.8849 20.0349C6.42956 18.5206 6.32012 16.9236 6.56466 15.3614C6.8092 13.7993 7.40147 12.3119 8.29785 11.0088C9.19422 9.70568 10.3718 8.62011 11.744 7.83207C13.1161 7.04402 14.6477 6.57358 16.226 6.4554C17.8042 6.33723 19.3889 6.57434 20.8633 7.14925C22.3377 7.72417 23.6641 8.62224 24.7449 9.7773C25.8257 10.9324 26.6333 12.315 27.1082 13.8232C28.3307 11.094 29.0514 8.16723 29.2357 5.18289C28.6876 4.61443 28.1008 4.08459 27.4795 3.5972C27.9015 6.42703 27.7122 9.31431 26.9244 12.065C26.5949 11.3936 26.209 10.7514 25.7708 10.1452C25.9196 7.37934 25.6292 4.60737 24.9104 1.93219C24.211 1.56386 23.4866 1.2451 22.7425 0.978264C24.0274 3.50994 24.7785 6.27814 24.9494 9.11153C24.4487 8.53889 23.905 8.00512 23.3232 7.51484C22.519 4.94637 21.3728 2.49755 19.9155 0.234124C19.1794 0.107331 18.4357 0.0291203 17.6893 0C19.4412 1.90589 20.8676 4.08647 21.9116 6.45456C21.1544 5.94995 20.3551 5.51144 19.5226 5.14389C18.2017 3.28939 16.6623 1.60026 14.9378 0.11289C14.21 0.201557 13.4887 0.337502 12.7786 0.51986C14.5234 1.59178 16.1102 2.90122 17.4934 4.41046C16.6003 4.1555 15.6856 3.98355 14.7609 3.89681C13.4172 2.906 11.9911 2.0317 10.4984 1.28346C9.78232 1.58157 9.08764 1.92856 8.41927 2.32196C9.90167 2.53959 11.3228 3.0621 12.5927 3.85644C11.7645 3.9026 10.9418 4.02047 10.134 4.20873C9.05325 3.85571 7.94876 3.57968 6.82889 3.38273C6.1805 3.86995 5.56766 4.40268 4.99501 4.97688C5.90362 4.84687 6.82486 4.83005 7.73762 4.92681C6.00917 5.55289 4.38123 6.42713 2.90506 7.52202C1.41869 9.72412 0.470027 12.2438 0.135289 14.8786C-0.199449 17.5134 0.0890644 20.19 0.977653 22.6932C1.86624 25.1964 3.33013 27.4565 5.25173 29.292C7.17332 31.1275 9.49905 32.4871 12.0421 33.2617C14.5851 34.0363 17.2745 34.2042 19.8943 33.752C22.5141 33.2999 24.9912 32.2401 27.1267 30.658C29.2621 29.0759 30.9963 27.0155 32.19 24.6423C33.3838 22.2691 34.0037 19.6493 34 16.9934C34 16.7245 33.9937 16.4571 33.9811 16.1913Z" fill="#5D00FF"/>
<path d="M52.374 28.42C50.358 28.42 48.6407 27.9813 47.222 27.104C45.8033 26.2173 44.716 24.9853 43.96 23.408C43.2133 21.8307 42.84 20.0013 42.84 17.92C42.84 15.8387 43.2133 14.0093 43.96 12.432C44.716 10.8547 45.8033 9.62733 47.222 8.75C48.6407 7.86333 50.358 7.42 52.374 7.42C54.3807 7.42 56.0933 7.86333 57.512 8.75C58.94 9.62733 60.0273 10.8547 60.774 12.432C61.5207 14.0093 61.894 15.8387 61.894 17.92C61.894 20.0013 61.5207 21.8307 60.774 23.408C60.0273 24.9853 58.94 26.2173 57.512 27.104C56.0933 27.9813 54.3807 28.42 52.374 28.42ZM52.374 25.634C53.802 25.6527 54.9873 25.34 55.93 24.696C56.882 24.0427 57.596 23.1373 58.072 21.98C58.548 20.8133 58.786 19.46 58.786 17.92C58.786 16.38 58.548 15.036 58.072 13.888C57.596 12.7307 56.882 11.83 55.93 11.186C54.9873 10.542 53.802 10.2153 52.374 10.206C50.946 10.1873 49.756 10.5 48.804 11.144C47.8613 11.788 47.152 12.6933 46.676 13.86C46.2 15.0267 45.9573 16.38 45.948 17.92C45.9387 19.46 46.172 20.8087 46.648 21.966C47.124 23.114 47.838 24.01 48.79 24.654C49.7513 25.298 50.946 25.6247 52.374 25.634ZM63.9866 28V12.88H66.5906V16.548L66.2266 16.072C66.4132 15.5867 66.6559 15.1433 66.9546 14.742C67.2532 14.3313 67.5986 13.9953 67.9906 13.734C68.3732 13.454 68.7979 13.2393 69.2646 13.09C69.7406 12.9313 70.2259 12.838 70.7206 12.81C71.2152 12.7727 71.6912 12.796 72.1486 12.88V15.624C71.6539 15.4933 71.1032 15.456 70.4966 15.512C69.8992 15.568 69.3486 15.7593 68.8446 16.086C68.3686 16.394 67.9906 16.7673 67.7106 17.206C67.4399 17.6447 67.2439 18.1347 67.1226 18.676C67.0012 19.208 66.9406 19.7727 66.9406 20.37V28H63.9866ZM75.7759 34.72L78.7019 26.754L78.7439 29.106L72.1499 12.88H75.2019L80.1299 25.41H79.2339L83.9379 12.88H86.9059L78.5619 34.72H75.7759ZM86.9991 28V27.538L95.5811 15.498H87.7831V12.88H100.229V13.356L91.6611 25.382H99.8091V28H86.9991ZM108.046 28.42C106.534 28.42 105.223 28.0793 104.112 27.398C103.002 26.7167 102.143 25.7787 101.536 24.584C100.939 23.38 100.64 21.994 100.64 20.426C100.64 18.8487 100.948 17.4627 101.564 16.268C102.18 15.064 103.044 14.1307 104.154 13.468C105.265 12.796 106.562 12.46 108.046 12.46C109.558 12.46 110.87 12.8007 111.98 13.482C113.091 14.1633 113.95 15.1013 114.556 16.296C115.163 17.4907 115.466 18.8673 115.466 20.426C115.466 22.0033 115.158 23.394 114.542 24.598C113.936 25.7927 113.077 26.7307 111.966 27.412C110.856 28.084 109.549 28.42 108.046 28.42ZM108.046 25.662C109.493 25.662 110.571 25.1767 111.28 24.206C111.999 23.226 112.358 21.966 112.358 20.426C112.358 18.8487 111.994 17.5887 111.266 16.646C110.548 15.694 109.474 15.218 108.046 15.218C107.066 15.218 106.259 15.442 105.624 15.89C104.99 16.3287 104.518 16.94 104.21 17.724C103.902 18.4987 103.748 19.3993 103.748 20.426C103.748 22.0127 104.112 23.282 104.84 24.234C105.568 25.186 106.637 25.662 108.046 25.662ZM128.455 28V20.566C128.455 19.978 128.403 19.376 128.301 18.76C128.207 18.1347 128.021 17.556 127.741 17.024C127.47 16.492 127.083 16.0627 126.579 15.736C126.084 15.4093 125.435 15.246 124.633 15.246C124.11 15.246 123.615 15.3347 123.149 15.512C122.682 15.68 122.271 15.9553 121.917 16.338C121.571 16.7207 121.296 17.2247 121.091 17.85C120.895 18.4753 120.797 19.236 120.797 20.132L118.977 19.446C118.977 18.074 119.233 16.8653 119.747 15.82C120.26 14.7653 120.997 13.944 121.959 13.356C122.92 12.768 124.082 12.474 125.445 12.474C126.49 12.474 127.367 12.642 128.077 12.978C128.786 13.314 129.36 13.7573 129.799 14.308C130.247 14.8493 130.587 15.442 130.821 16.086C131.054 16.73 131.213 17.36 131.297 17.976C131.381 18.592 131.423 19.1333 131.423 19.6V28H128.455ZM117.829 28V12.88H120.447V17.248H120.797V28H117.829ZM134.649 28V7.42H137.575V28H134.649ZM143.124 34.72L146.05 26.754L146.092 29.106L139.498 12.88H142.55L147.478 25.41H146.582L151.286 12.88H154.254L145.91 34.72H143.124Z" fill="#211B3D"/>
</svg>
