<svg width="181" height="45" viewBox="0 0 181 45" fill="none" xmlns="http://www.w3.org/2000/svg">
<g clip-path="url(#clip0_23_928)">
<path d="M73.0971 31.1022C73.0971 30.7189 72.855 30.4313 72.3225 30.3355V30.0958C72.613 30.0958 73.5327 30.1438 73.8232 30.1438C74.0652 30.1438 74.9366 30.0958 75.227 30.0958V30.3355C74.7429 30.4313 74.5009 30.7189 74.5009 31.1022V35.8946C74.5009 37.4281 75.3239 38.2907 77.115 38.2907C78.6156 38.2907 79.8259 37.6198 79.8259 36.0383V31.0543C79.8259 30.7189 79.5838 30.4313 79.0513 30.2875V30.0479C79.245 30.0479 80.0195 30.0958 80.3099 30.0958C80.552 30.0958 81.3749 30.0479 81.5686 30.0479V30.2875C81.0361 30.4313 80.794 30.6709 80.794 31.0543V35.7508C80.794 37.8594 79.5838 39.0575 76.9213 39.0575C74.4525 39.0575 73.1455 37.9553 73.1455 35.9904V31.1022H73.0971Z" fill="#1E1E1E"/>
<path d="M83.7468 38.6741C84.3277 38.5783 84.5698 38.2907 84.5698 37.9073V31.2939C84.5698 30.7189 84.2793 30.4792 83.7468 30.3355V30.0958C84.0373 30.0958 84.5214 30.1438 84.7634 30.1438C85.0055 30.1438 85.3443 30.1438 85.5864 30.0958L91.3954 36.853V31.0543C91.3954 30.7189 91.1534 30.4313 90.6209 30.2875V30.0479C90.8145 30.0479 91.589 30.0958 91.8311 30.0958C92.0731 30.0958 92.8477 30.0479 93.0897 30.0479V30.2875C92.5572 30.4313 92.2668 30.6709 92.2668 31.0543V39.0096H91.9279C91.6858 38.9617 91.2986 38.722 90.6693 38.0511L85.4411 32.0607V37.9073C85.4411 38.2428 85.6348 38.5304 86.2157 38.6741V38.9137C86.022 38.9137 85.2475 38.8658 85.0055 38.8658C84.7634 38.8658 83.9889 38.9137 83.7952 38.9137V38.6741H83.7468Z" fill="#1E1E1E"/>
<path d="M129.687 36.853H129.929C130.074 37.3323 130.364 37.8115 130.752 38.0511C131.187 38.3387 131.817 38.4824 132.349 38.4824C133.511 38.4824 134.286 37.9073 134.286 36.9968C134.286 36.0383 133.317 35.5591 132.204 34.984C131.333 34.5527 129.687 33.8818 129.687 32.3003C129.687 30.8147 130.849 29.9042 132.64 29.9042C133.85 29.9042 134.431 30.1917 135.205 30.1438V31.9649H134.963C134.624 30.9105 133.656 30.5272 132.591 30.5272C131.381 30.5272 130.945 31.1981 130.945 31.869C130.945 32.8275 131.914 33.3546 133.027 33.8339C134.286 34.361 135.593 35.0799 135.593 36.6134C135.593 38.0511 134.431 39.1054 132.349 39.1054C131.091 39.1054 130.364 38.77 129.687 38.6741V36.853Z" fill="#1E1E1E"/>
<path d="M154.714 35.2716L152.342 31.4856C151.955 30.8147 151.616 30.4792 151.18 30.2875V30.0479C151.519 30.0479 152.39 30.0958 152.632 30.0958C152.874 30.0958 153.794 30.0479 154.133 30.0479V30.2875C153.843 30.3355 153.697 30.4792 153.697 30.7188C153.697 30.9105 153.843 31.1981 153.988 31.3898C154.133 31.6294 155.731 34.2652 155.731 34.2652L157.425 31.3898C157.619 31.1022 157.715 30.8147 157.715 30.623C157.715 30.4313 157.57 30.3355 157.328 30.2875V30.0479C157.619 30.0479 158.199 30.0958 158.393 30.0958C158.587 30.0958 159.264 30.0479 159.555 30.0479V30.2875C158.926 30.5272 158.49 31.1022 158.103 31.7732L155.973 35.3195M156.069 34.8882V37.9073C156.069 38.1949 156.311 38.5783 156.796 38.6741V38.9137C156.505 38.9137 155.537 38.8658 155.295 38.8658C155.053 38.8658 154.182 38.9137 153.843 38.9137V38.6741C154.375 38.5783 154.617 38.1949 154.617 37.9073V35.0319" fill="#1E1E1E"/>
<path d="M110.662 30.0479H116.229C116.423 30.0479 116.713 30.0479 116.858 29.9521H117.1L117.052 31.7252H116.81C116.616 31.1502 116.374 30.7189 115.309 30.7189H112.889V33.8339H114.728C115.019 33.8339 115.309 33.8339 115.455 33.7859C115.89 33.6901 116.035 33.4505 116.132 33.115H116.374C116.374 33.4026 116.374 33.9776 116.374 34.1693C116.374 34.361 116.374 34.984 116.374 35.2716H116.181C116.084 34.9361 115.89 34.6486 115.503 34.5527C115.358 34.5048 115.019 34.5048 114.777 34.5048H112.937V38.147H115.551C116.713 38.147 117.052 37.6677 117.294 36.9968L117.536 37.0447L117.294 38.8658C116.423 38.77 115.939 38.77 114.97 38.77H112.211C111.921 38.77 110.953 38.8179 110.662 38.8179V38.5783C111.146 38.4824 111.437 38.2428 111.437 37.7636V31.1022C111.437 30.6709 111.195 30.4313 110.662 30.3355V30.0479Z" fill="#1E1E1E"/>
<path d="M96.4785 31.1502C96.4785 30.7188 96.188 30.4313 95.6555 30.3355V30.0958C95.946 30.0958 96.9141 30.1438 97.2046 30.1438C97.4466 30.1438 98.4148 30.0958 98.7537 30.0958V30.3355C98.2212 30.4313 97.9307 30.6709 97.9307 31.1502V37.8594C97.9307 38.2907 98.2212 38.5783 98.7537 38.6741V38.9137C98.4632 38.9137 97.495 38.8658 97.2046 38.8658C96.9626 38.8658 95.946 38.9137 95.6555 38.9137V38.6741C96.188 38.5783 96.4785 38.3387 96.4785 37.8594V31.1502Z" fill="#1E1E1E"/>
<path d="M138.642 31.1502C138.642 30.7188 138.352 30.4313 137.819 30.3355V30.0958C138.11 30.0958 139.078 30.1438 139.368 30.1438C139.61 30.1438 140.579 30.0958 140.917 30.0958V30.3355C140.385 30.4313 140.095 30.6709 140.095 31.1502V37.8594C140.095 38.2907 140.385 38.5783 140.917 38.6741V38.9137C140.627 38.9137 139.659 38.8658 139.368 38.8658C139.126 38.8658 138.11 38.9137 137.819 38.9137V38.6741C138.352 38.5783 138.642 38.3387 138.642 37.8594V31.1502Z" fill="#1E1E1E"/>
<path d="M146.339 30.0958C143.29 30.0958 142.806 30.0479 142.176 30V31.8211H142.418C142.66 31.0064 143.096 30.8147 143.677 30.8147H145.565V37.8594C145.565 38.3387 145.323 38.5783 144.742 38.6741V38.9137C145.032 38.9137 146.049 38.8658 146.291 38.8658C146.581 38.8658 147.501 38.9137 147.84 38.9137V38.6741C147.308 38.5783 147.017 38.2907 147.017 37.8594V30.8626H148.905C149.534 30.8626 149.97 31.0543 150.164 31.869H150.406V30.0479C149.873 30.0479 149.389 30.0958 146.339 30.0958Z" fill="#1E1E1E"/>
<path d="M122.038 37.8594C122.038 38.2907 122.329 38.5783 122.861 38.6741V38.9137C122.571 38.9137 121.602 38.8658 121.312 38.8658C121.07 38.8658 120.102 38.9137 119.811 38.9137V38.6741C120.295 38.5783 120.586 38.3387 120.586 37.8594V31.0543C120.586 30.623 120.344 30.3834 119.811 30.2875V30.0479C120.102 30.0479 121.07 30.0958 121.312 30.0958C121.748 30.0958 123.006 30 123.49 30C125.62 30 126.831 30.8626 126.831 32.3482C126.831 33.5463 125.959 34.3131 124.604 34.6486C124.604 34.6486 124.894 34.8403 125.233 35.1757C125.62 35.607 126.637 37.0447 127.073 37.5719C127.508 38.099 128.041 38.6262 128.622 38.6741V38.8658C128.331 38.9137 127.896 38.9617 127.557 38.9617C126.831 38.9617 126.25 38.722 125.669 38.0511C125.185 37.476 124.362 36.23 123.878 35.6549C123.587 35.2716 123.2 34.9361 122.522 34.8403C122.377 34.8403 122.28 34.7923 122.086 34.7923V37.8594H122.038ZM122.038 34.2652C122.329 34.3131 122.764 34.3131 123.151 34.3131C124.846 34.3131 125.33 33.3546 125.33 32.5399C125.33 31.3419 124.507 30.623 123.055 30.623C122.764 30.623 122.329 30.6709 121.99 30.7188V34.2652H122.038Z" fill="#1E1E1E"/>
<path d="M100.884 31.1502C100.69 30.7189 100.399 30.4313 99.8669 30.2875V30.0479C100.206 30.0479 101.271 30.0958 101.513 30.0958C101.755 30.0958 102.675 30.0479 103.014 30.0479V30.2875C102.723 30.3355 102.384 30.4792 102.384 30.8147C102.384 31.0064 102.529 31.2939 102.771 31.869L105.095 37.0447L107.273 31.869C107.467 31.4377 107.564 31.1022 107.564 30.8626C107.564 30.5751 107.322 30.3834 106.935 30.3355V30.0958C107.225 30.0958 107.951 30.1438 108.145 30.1438C108.338 30.1438 109.161 30.0958 109.5 30.0958V30.3355C108.968 30.4792 108.629 30.7668 108.338 31.4856L105.143 38.9617H104.417L100.884 31.1502Z" fill="#1E1E1E"/>
<path d="M109.065 7.57188C108.677 6.75719 108.145 6.18211 107.177 5.94249V5.46326C107.758 5.46326 109.742 5.51118 110.227 5.51118C110.662 5.51118 112.55 5.46326 113.179 5.46326V5.94249C112.647 6.03834 112.018 6.32588 112.018 6.90096C112.018 7.28434 112.26 7.8115 112.744 8.86581L117.101 18.6901L121.215 8.86581C121.554 8.05112 121.796 7.47604 121.796 6.99681C121.796 6.46965 121.312 6.13419 120.634 5.99042V5.51118C121.167 5.51118 122.522 5.55911 122.91 5.55911C123.297 5.55911 124.894 5.51118 125.475 5.51118V5.94249C124.459 6.23003 123.829 6.80511 123.248 8.14696L117.149 22.3323H115.794L109.065 7.57188Z" fill="#1E1E1E"/>
<path d="M50.2964 21.7572C51.0709 21.5655 51.6518 21.23 51.6518 20.3195V7.33227C51.6518 6.46965 51.1193 6.13419 50.2964 5.89457V5.41534C50.7321 5.41534 52.5232 5.46326 52.9589 5.46326C53.443 5.46326 55.3309 5.41534 55.7666 5.41534V5.89457C54.992 6.08626 54.3627 6.42173 54.3627 7.33227V12.7476H64.1413V7.33227C64.1413 6.42173 63.6088 6.08626 62.7858 5.89457V5.41534C63.2215 5.41534 65.061 5.46326 65.5451 5.46326C65.9808 5.46326 67.8203 5.41534 68.2076 5.41534V5.89457C67.4331 6.08626 66.8037 6.42173 66.8037 7.33227V20.3195C66.8037 21.1821 67.3362 21.5176 68.2076 21.7572V22.1885C67.8203 22.1885 65.9808 22.1406 65.5451 22.1406C65.061 22.1406 63.2215 22.1885 62.7858 22.1885V21.7572C63.5604 21.5655 64.1413 21.23 64.1413 20.3195V14.1853H54.3627V20.3195C54.3627 21.23 54.8952 21.5176 55.7666 21.7572V22.1885C55.3309 22.1885 53.4914 22.1406 52.9589 22.1406C52.5232 22.1406 50.7321 22.1885 50.2964 22.1885V21.7572Z" fill="#1E1E1E"/>
<path d="M163.476 21.7572C164.493 21.5655 165.074 21.1821 165.074 20.2716V7.33227C165.074 6.42173 164.541 6.08626 163.524 5.89457V5.41534C164.105 5.41534 165.945 5.46326 166.429 5.46326C167.252 5.46326 169.527 5.27157 171.318 5.27157C177.321 5.27157 181 8.57827 181 13.6581C181 18.5942 177.176 22.2364 170.979 22.2364C169.188 22.2364 167.058 22.0927 166.235 22.0927C165.751 22.0927 164.009 22.1406 163.476 22.1406V21.7572ZM167.784 20.8946C168.414 20.9904 169.527 21.0863 170.447 21.0863C175.481 21.0863 178.144 18.0671 178.144 13.8498C178.144 9.48882 175.385 6.42173 170.641 6.42173C169.672 6.42173 168.462 6.46965 167.833 6.61342V20.8946H167.784Z" fill="#1E1E1E"/>
<path d="M95.3649 20.2236C95.3649 21.0863 95.8974 21.5655 96.9139 21.7572V22.2364C96.333 22.2364 94.4935 22.1885 93.961 22.1885C93.5253 22.1885 91.6858 22.2364 91.1533 22.2364V21.7572C92.0731 21.5655 92.654 21.1342 92.654 20.2236V7.38019C92.654 6.61342 92.2183 6.08626 91.1533 5.89457V5.41534C91.7342 5.41534 93.5253 5.46326 94.0094 5.46326C94.8324 5.46326 97.2044 5.31949 98.1242 5.31949C102.19 5.31949 104.417 6.9968 104.417 9.82428C104.417 12.0767 102.723 13.5623 100.157 14.1853C100.157 14.1853 100.738 14.5208 101.319 15.1917C102.045 16.0064 103.982 18.8339 104.805 19.7923C105.579 20.7508 106.644 21.8051 107.709 21.853V22.2364C107.177 22.3323 106.354 22.4281 105.724 22.4281C104.369 22.4281 103.255 21.9489 102.19 20.655C101.271 19.5527 99.6732 17.2045 98.7535 16.0064C98.1726 15.2875 97.4464 14.6645 96.1394 14.4728C95.8974 14.4249 95.6553 14.377 95.3649 14.377V20.2236ZM95.3649 13.4185C95.8974 13.4665 96.6719 13.5144 97.4949 13.5144C100.641 13.5144 101.658 11.6933 101.658 10.1118C101.658 7.85942 100.157 6.46965 97.3496 6.46965C96.7687 6.46965 95.9458 6.51757 95.3649 6.66134V13.4185Z" fill="#1E1E1E"/>
<path d="M148.711 20.2236C148.711 21.0863 149.244 21.5655 150.26 21.7572V22.2364C149.679 22.2364 147.84 22.1885 147.307 22.1885C146.872 22.1885 145.032 22.2364 144.5 22.2364V21.7572C145.42 21.5655 146 21.1342 146 20.2236V7.38019C146 6.61342 145.565 6.08626 144.5 5.89457V5.41534C145.081 5.41534 146.823 5.46326 147.356 5.46326C148.179 5.46326 150.551 5.31949 151.471 5.31949C155.537 5.31949 157.764 6.9968 157.764 9.82428C157.764 12.0767 156.069 13.5623 153.504 14.1853C153.504 14.1853 154.085 14.5208 154.666 15.1917C155.392 16.0064 157.376 18.8339 158.151 19.7923C158.974 20.7508 159.991 21.8051 161.056 21.853V22.2364C160.523 22.3323 159.7 22.4281 159.071 22.4281C157.667 22.4281 156.602 21.9489 155.537 20.655C154.617 19.5527 153.02 17.2045 152.1 16.0064C151.519 15.2875 150.793 14.6645 149.486 14.4728C149.244 14.4249 149.002 14.377 148.711 14.377V20.2236ZM148.711 13.4185C149.244 13.4665 150.018 13.5144 150.841 13.5144C153.988 13.5144 155.004 11.6933 155.004 10.1118C155.004 7.85942 153.504 6.46965 150.696 6.46965C150.115 6.46965 149.292 6.51757 148.711 6.66134V13.4185Z" fill="#1E1E1E"/>
<path d="M70.8218 21.7572C71.8868 21.5176 72.4677 20.8466 72.855 19.8882L78.2768 6.99681C78.5188 6.46965 78.7609 5.36741 78.7609 5.36741H80.2615C80.2615 5.36741 80.552 6.46965 80.7456 6.99681L86.4578 19.9361C86.8451 20.8466 87.3292 21.4696 88.4426 21.7572V22.1885C87.8133 22.1885 85.8769 22.1406 85.4413 22.1406C85.0056 22.1406 83.1661 22.1885 82.5367 22.1885V21.7572C83.3597 21.5655 83.6501 21.1342 83.6501 20.7508C83.6501 20.4153 83.5049 20.032 83.3113 19.6006L82.1011 16.8211H75.8079L74.6945 19.6006C74.5493 19.9361 74.4041 20.3674 74.4041 20.655C74.4041 21.1342 74.6461 21.4696 75.6143 21.7572V22.1885C75.0334 22.1885 73.5811 22.1406 73.2423 22.1406L70.7734 22.1885L70.8218 21.7572ZM81.617 15.4792L78.9061 9.2492L76.3888 15.4792H81.617Z" fill="#1E1E1E"/>
<path d="M124.507 21.7572C125.572 21.5176 126.153 20.8466 126.54 19.8882L131.962 6.99681C132.204 6.46965 132.446 5.36741 132.446 5.36741H133.947C133.947 5.36741 134.237 6.46965 134.431 6.99681L140.143 19.9361C140.53 20.8466 141.014 21.4696 142.128 21.7572V22.1885C141.499 22.1885 139.562 22.1406 139.126 22.1406C138.691 22.1406 136.851 22.1885 136.222 22.1885V21.7572C137.045 21.5655 137.335 21.1342 137.335 20.7508C137.335 20.4153 137.19 20.032 137.045 19.6006L135.835 16.8211H129.542L128.428 19.6006C128.283 19.9361 128.138 20.3674 128.138 20.655C128.138 21.1342 128.38 21.4696 129.348 21.7572V22.1885C128.767 22.1885 127.315 22.1406 126.976 22.1406L124.507 22.1885V21.7572ZM135.302 15.4792L132.591 9.2492L130.074 15.4792H135.302Z" fill="#1E1E1E"/>
<path d="M0.290283 0.239616H38.049V14.377C38.049 20.8466 35.6286 34.6006 19.3149 44.8083C19.3149 44.8083 1.64573 37.476 0.290283 14.377V0.239616Z" fill="#A51C30"/>
<path d="M0.241943 0.239616H38.0007V14.377C38.0007 20.8466 35.5803 34.5527 19.2665 44.8083C19.2665 44.8083 1.59739 37.524 0.241943 14.377V0.239616Z" stroke="black" stroke-width="0.915"/>
<path d="M28.8999 18.4026C28.8999 18.4026 28.561 19.4569 27.0603 18.3546L21.929 18.2109C21.929 18.2109 21.2513 18.4026 21.1545 17.7316C21.1545 17.7316 21.2997 16.3419 21.2029 16.1981C21.2029 16.1981 21.2513 15.8147 20.5736 15.8147C20.5736 15.8147 19.5086 15.9585 19.5086 15.0479C19.5086 15.0479 19.3149 14.0895 20.7672 14.0895C20.7672 14.0895 21.2029 14.2812 21.2513 13.7061C21.2513 13.7061 21.2029 9.77636 21.2029 9.48882C21.2029 9.48882 21.3481 9.10543 20.622 9.05751C20.622 9.05751 19.6054 9.2492 19.5086 8.6262C19.5086 8.6262 19.4602 7.61981 20.1379 7.57188C20.1379 7.57188 20.9608 7.61981 21.1061 7.42811C21.1061 7.42811 21.2997 7.52396 21.2513 6.80511L21.2997 5.55911C21.2997 5.55911 21.3965 5.22364 21.929 5.27157C21.929 5.27157 22.8972 5.31949 22.994 5.22364C22.994 5.22364 23.1876 4.9361 23.2845 4.84026C23.2845 4.84026 23.7685 4.79233 23.8654 4.9361C23.8654 4.9361 24.5915 5.41533 27.3992 5.22364C27.3992 5.22364 27.8349 5.22364 27.9317 5.36741C27.9317 5.36741 28.4642 5.7508 28.7546 5.31949C28.7546 5.31949 29.1903 5.22364 30.5942 5.27157C30.5942 5.27157 32.0948 5.65495 33.1598 4.84026L33.4987 4.88818C33.4987 4.88818 33.9344 5.60703 34.2248 5.36741C34.2248 5.36741 35.1446 5.27157 35.2898 5.46326C35.2898 5.46326 35.5803 5.89457 35.435 7.09265C35.435 7.09265 35.2414 7.61981 36.1612 7.61981C36.1612 7.61981 37.1777 7.42811 37.0325 8.38658C37.0325 8.38658 37.323 9.44089 35.6287 9.29712C35.6287 9.29712 35.435 9.58466 35.435 9.82428C35.435 9.82428 35.3866 13.2748 35.3866 13.6581C35.3866 13.6581 35.3382 14.1853 36.1128 14.1853C36.1128 14.1853 37.0809 14.1374 37.1293 15C37.1293 15 37.2746 16.1502 35.8223 15.9585C35.8223 15.9585 35.3866 16.0064 35.3382 16.2939L35.2898 17.8275C35.2898 17.8275 35.3382 18.5943 34.4669 18.4026C34.3216 18.4026 29.6744 18.4984 29.2871 18.3546C29.1419 18.3067 28.9483 18.2588 28.8999 18.4026Z" fill="white"/>
<path d="M18.9761 23.4824C18.9761 23.4824 19.1697 23.3866 19.2665 23.2428C19.2665 23.2428 19.8958 23.1949 19.9927 23.099L22.0258 23.2428C22.0258 23.2428 24.0106 23.3866 24.8819 22.7636C24.8819 22.7636 25.1724 22.7636 25.4144 22.8594C25.4144 22.8594 25.8501 22.9553 25.9469 23.147L27.1087 23.099C27.1087 23.099 27.7865 23.2907 27.7381 23.722V24.2492C27.7381 24.2492 27.5928 25.3514 27.9317 25.3994H28.803C28.803 25.3994 29.5292 25.7348 29.4324 26.1661C29.4324 26.1661 29.4808 26.7891 28.803 26.885C28.803 26.885 28.1737 27.0767 27.9317 27.0288C27.9317 27.0288 27.7381 27.3163 27.6896 27.6518L27.6412 31.6294C27.6412 31.6294 27.5928 32.0607 28.2221 32.0128C28.2221 32.0128 29.1903 31.9169 29.4324 32.4441C29.4324 32.4441 29.6744 33.3067 29.1903 33.4505L28.803 33.6422L28.0285 33.7859C28.0285 33.7859 27.6896 33.8339 27.6412 34.4089V35.4633C27.6412 35.4633 27.6896 36.1821 27.1087 36.1821L26.2374 36.23C26.2374 36.23 26.0437 36.4217 25.6081 36.278C25.6081 36.278 20.3799 36.3738 20.2347 36.3259L19.6054 36.4217C19.6054 36.4217 18.9277 37.0447 18.3952 36.5655L17.9595 36.23C17.9595 36.23 17.669 36.278 17.5238 36.278C17.3786 36.23 11.7632 36.3259 11.7632 36.3259C11.7632 36.3259 10.553 36.4696 10.4562 36.0383C10.4562 36.0383 10.3109 34.5048 10.3593 34.3131C10.3593 34.3131 10.3593 33.8818 10.0689 33.8339C10.0689 33.8339 8.85867 33.7859 8.85867 33.6422C8.85867 33.6422 8.22936 33.2109 8.42299 32.7316C8.42299 32.7316 8.61663 32.1086 9.29435 32.0607C9.29435 32.0607 10.2625 32.2045 10.2625 31.9169C10.2625 31.9169 10.3109 31.7252 10.3109 31.4377C10.3109 31.4377 10.3593 27.8434 10.3593 27.6038C10.3593 27.6038 10.4562 27.1246 10.0689 27.1246C10.0689 27.1246 9.63321 27.2684 9.34276 27.0767C9.34276 27.0767 8.61663 27.1246 8.4714 26.5495C8.4714 26.5495 8.32618 26.1661 8.51981 25.8786C8.51981 25.8786 8.85867 25.2077 9.82684 25.4473C9.82684 25.4473 10.3593 25.5911 10.4562 25.2077L10.4077 23.77C10.4077 23.77 10.2625 23.3866 11.0371 23.147C11.0371 23.147 12.0052 23.4345 12.3441 22.9553C12.3441 22.9553 12.683 22.2843 12.9734 22.7636C12.9734 22.7636 13.5543 23.2907 15.1518 23.2428C15.1518 23.2428 17.9111 23.0511 17.9595 23.147C17.9595 23.147 18.6372 23.2428 18.8309 23.4345L18.9761 23.4824Z" fill="white"/>
<path d="M10.6499 18.4026C10.6499 18.4026 10.311 19.4569 8.81033 18.3546L3.67902 18.2588C3.67902 18.2588 3.00129 18.4505 2.90448 17.7796C2.90448 17.7796 3.0497 16.3898 2.95289 16.246C2.95289 16.246 3.00129 15.8626 2.32357 15.8626C2.32357 15.8626 1.30699 16.0064 1.25858 15.0958C1.25858 15.0958 1.06495 14.1374 2.51721 14.1374C2.51721 14.1374 2.95289 14.3291 3.00129 13.754C3.00129 13.754 2.95289 9.82428 2.95289 9.48882C2.95289 9.48882 3.09811 9.10543 2.37198 9.05751C2.37198 9.05751 1.3554 9.2492 1.25858 8.57827C1.25858 8.57827 1.21017 7.57189 1.88789 7.52396C1.88789 7.52396 2.71084 7.57188 2.85607 7.38019C2.85607 7.38019 3.0497 7.47604 3.00129 6.75719L3.0497 5.51118C3.0497 5.51118 3.14652 5.17572 3.67902 5.22364C3.67902 5.22364 4.64719 5.27157 4.74401 5.17572C4.74401 5.17572 4.93764 4.88818 5.03446 4.79233C5.03446 4.79233 5.51854 4.74441 5.61536 4.88818C5.61536 4.88818 6.34149 5.36741 9.14919 5.17572C9.14919 5.17572 9.58487 5.17572 9.68169 5.31949C9.68169 5.31949 10.2142 5.70288 10.5046 5.27157C10.5046 5.27157 10.9403 5.17572 12.3442 5.22364C12.3442 5.22364 13.8448 5.60703 14.8614 4.79233L15.2003 4.84026C15.2003 4.84026 15.636 5.55911 15.9264 5.31949C15.9264 5.31949 16.8462 5.22364 16.9914 5.41534C16.9914 5.41534 17.2819 5.84665 17.1366 7.04473C17.1366 7.04473 16.943 7.57189 17.8628 7.57189C17.8628 7.57189 18.8793 7.38019 18.7341 8.33866C18.7341 8.33866 19.0246 9.39297 17.3303 9.2492C17.3303 9.2492 17.1366 9.53674 17.1366 9.77636C17.1366 9.77636 17.0882 13.2268 17.0882 13.6102C17.0882 13.6102 17.0398 14.1374 17.8143 14.1374C17.8143 14.1374 18.7825 14.0895 18.8309 14.9521C18.8309 14.9521 18.9762 16.1022 17.5239 15.9105C17.5239 15.9105 17.0882 15.9585 17.0398 16.246L16.943 17.7796C16.943 17.7796 16.9914 18.5463 16.12 18.3546C15.9748 18.3546 11.3276 18.4505 10.9403 18.3067C10.9403 18.3067 10.7467 18.2588 10.6499 18.4026Z" fill="white"/>
<path d="M28.8999 18.4026C28.8999 18.4026 28.561 19.4569 27.0603 18.3546L21.929 18.2109C21.929 18.2109 21.2513 18.4026 21.1545 17.7316C21.1545 17.7316 21.2997 16.3419 21.2029 16.1981C21.2029 16.1981 21.2513 15.8147 20.5736 15.8147C20.5736 15.8147 19.5086 15.9585 19.5086 15.0479C19.5086 15.0479 19.3149 14.0895 20.7672 14.0895C20.7672 14.0895 21.2029 14.2812 21.2513 13.7061C21.2513 13.7061 21.2029 9.77636 21.2029 9.48882C21.2029 9.48882 21.3481 9.10543 20.622 9.05751C20.622 9.05751 19.6054 9.2492 19.5086 8.6262C19.5086 8.6262 19.4602 7.61981 20.1379 7.57188C20.1379 7.57188 20.9608 7.61981 21.1061 7.42811C21.1061 7.42811 21.2997 7.52396 21.2513 6.80511L21.2997 5.55911C21.2997 5.55911 21.3965 5.22364 21.929 5.27157C21.929 5.27157 22.8972 5.31949 22.994 5.22364C22.994 5.22364 23.1876 4.9361 23.2845 4.84026C23.2845 4.84026 23.7685 4.79233 23.8654 4.9361C23.8654 4.9361 24.5915 5.41533 27.3992 5.22364C27.3992 5.22364 27.8349 5.22364 27.9317 5.36741C27.9317 5.36741 28.4642 5.7508 28.7546 5.31949C28.7546 5.31949 29.1903 5.22364 30.5942 5.27157C30.5942 5.27157 32.0948 5.65495 33.1598 4.84026L33.4987 4.88818C33.4987 4.88818 33.9344 5.60703 34.2248 5.36741C34.2248 5.36741 35.1446 5.27157 35.2898 5.46326C35.2898 5.46326 35.5803 5.89457 35.435 7.09265C35.435 7.09265 35.2414 7.61981 36.1612 7.61981C36.1612 7.61981 37.1777 7.42811 37.0325 8.38658C37.0325 8.38658 37.323 9.44089 35.6287 9.29712C35.6287 9.29712 35.435 9.58466 35.435 9.82428C35.435 9.82428 35.3866 13.2748 35.3866 13.6581C35.3866 13.6581 35.3382 14.1853 36.1128 14.1853C36.1128 14.1853 37.0809 14.1374 37.1293 15C37.1293 15 37.2746 16.1502 35.8223 15.9585C35.8223 15.9585 35.3866 16.0064 35.3382 16.2939L35.2898 17.8275C35.2898 17.8275 35.3382 18.5943 34.4669 18.4026C34.3216 18.4026 29.6744 18.4984 29.2871 18.3546C29.1419 18.3067 28.9483 18.2588 28.8999 18.4026Z" fill="#1E1E1E"/>
<path d="M28.8999 18.4026C28.8999 18.4026 28.561 19.4569 27.0603 18.3546L21.929 18.2109C21.929 18.2109 21.2513 18.4026 21.1545 17.7316C21.1545 17.7316 21.2997 16.3419 21.2029 16.1981C21.2029 16.1981 21.2513 15.8147 20.5736 15.8147C20.5736 15.8147 19.5086 15.9585 19.5086 15.0479C19.5086 15.0479 19.3149 14.0895 20.7672 14.0895C20.7672 14.0895 21.2029 14.2812 21.2513 13.7061C21.2513 13.7061 21.2029 9.77636 21.2029 9.48882C21.2029 9.48882 21.3481 9.10543 20.622 9.05751C20.622 9.05751 19.6054 9.2492 19.5086 8.6262C19.5086 8.6262 19.4602 7.61981 20.1379 7.57188C20.1379 7.57188 20.9608 7.61981 21.1061 7.42811C21.1061 7.42811 21.2997 7.52396 21.2513 6.80511L21.2997 5.55911C21.2997 5.55911 21.3965 5.22364 21.929 5.27157C21.929 5.27157 22.8972 5.31949 22.994 5.22364C22.994 5.22364 23.1876 4.9361 23.2845 4.84026C23.2845 4.84026 23.7685 4.79233 23.8654 4.9361C23.8654 4.9361 24.5915 5.41534 27.3992 5.22364C27.3992 5.22364 27.8349 5.22364 27.9317 5.36741C27.9317 5.36741 28.4642 5.7508 28.7546 5.31949C28.7546 5.31949 29.1903 5.22364 30.5942 5.27157C30.5942 5.27157 32.0948 5.65495 33.1598 4.84026L33.4987 4.88818C33.4987 4.88818 33.9344 5.60703 34.2248 5.36741C34.2248 5.36741 35.1446 5.27157 35.2898 5.46326C35.2898 5.46326 35.5803 5.89457 35.435 7.09265C35.435 7.09265 35.2414 7.61981 36.1612 7.61981C36.1612 7.61981 37.1777 7.42811 37.0325 8.38658C37.0325 8.38658 37.323 9.44089 35.6287 9.29712C35.6287 9.29712 35.435 9.58466 35.435 9.82428C35.435 9.82428 35.3866 13.2748 35.3866 13.6581C35.3866 13.6581 35.3382 14.1853 36.1128 14.1853C36.1128 14.1853 37.0809 14.1374 37.1293 15C37.1293 15 37.2746 16.1502 35.8223 15.9585C35.8223 15.9585 35.3866 16.0064 35.3382 16.2939L35.2898 17.8275C35.2898 17.8275 35.3382 18.5943 34.4669 18.4026C34.3216 18.4026 29.6744 18.4984 29.2871 18.3546C29.1419 18.3067 28.9483 18.2588 28.8999 18.4026Z" stroke="black" stroke-width="0.2189"/>
<path d="M23.0909 5.89457C23.0909 5.89457 23.1393 6.51757 23.1393 6.66134C23.1393 6.80511 23.0425 15.4313 23.0425 15.4313C23.0425 15.4313 23.1393 16.1022 22.5584 16.4377C22.5584 16.4377 22.4132 16.4856 22.3647 16.0543L22.4132 6.94888C22.4616 6.94888 22.51 5.84665 23.0909 5.89457Z" fill="white"/>
<path d="M23.0909 5.89457C23.0909 5.89457 23.1393 6.51757 23.1393 6.66134C23.1393 6.80511 23.0425 15.4313 23.0425 15.4313C23.0425 15.4313 23.1393 16.1022 22.5584 16.4377C22.5584 16.4377 22.4132 16.4856 22.3647 16.0543L22.4132 6.94888C22.4616 6.94888 22.51 5.84665 23.0909 5.89457Z" stroke="black" stroke-width="0.2305"/>
<path d="M22.0741 16.5335C22.0741 16.5335 22.1225 8.00319 22.1225 7.85942C22.0741 7.71565 22.1709 8.0032 22.1709 8.0032C22.1709 8.0032 22.0741 6.51757 22.4614 5.89457C22.4614 5.89457 22.3162 5.36741 21.6385 6.03834L21.59 7.1885C21.59 7.1885 21.59 7.90735 20.9607 7.85942C20.9607 7.85942 20.2346 7.8115 19.8957 8.14696C19.8957 8.14696 19.7021 8.81789 20.4282 8.67412C20.4282 8.67412 21.5416 8.67412 21.59 9.10543L21.5416 13.7061C21.5416 13.7061 21.7837 14.4728 20.9123 14.4728C20.9123 14.4728 19.8473 14.4249 19.8957 15.0479C19.8957 15.0479 20.0894 15.5751 21.0091 15.4313C21.0091 15.4313 21.6385 15.5272 21.6385 16.1502V17.3003C21.6385 17.3003 21.59 17.7796 22.1709 17.7796H26.9634C26.9634 17.7796 27.2055 17.8275 27.2055 17.492C27.2055 17.492 27.157 17.2524 26.8182 17.2524H22.8003C22.8003 17.2524 22.1225 17.4441 22.0741 16.5335Z" fill="white"/>
<path d="M22.9941 16.4856C22.9941 16.4856 22.8488 16.9169 23.3329 16.8211H26.4795L27.3508 17.0128C27.3508 17.0128 28.2222 16.8211 27.3508 16.2939C27.3508 16.2939 24.5431 16.3419 24.3011 16.246C24.3011 16.246 23.7202 16.1022 23.575 16.0543C23.575 16.1022 23.2845 16.0064 22.9941 16.4856Z" fill="white"/>
<path d="M22.9941 16.4856C22.9941 16.4856 22.8488 16.9169 23.3329 16.8211H26.4795L27.3508 17.0128C27.3508 17.0128 28.2222 16.8211 27.3508 16.2939C27.3508 16.2939 24.5431 16.3419 24.3011 16.246C24.3011 16.246 23.7202 16.1022 23.575 16.0543C23.575 16.1022 23.2845 16.0064 22.9941 16.4856Z" stroke="black" stroke-width="0.2305"/>
<path d="M28.2221 16.9169C28.2221 16.9169 27.6412 16.9169 27.6896 17.6837C27.6896 17.6837 27.738 18.2588 28.3674 18.2588C28.3674 18.2588 28.8998 18.1629 28.8514 17.5399C28.8514 17.5879 28.5126 16.8211 28.2221 16.9169Z" fill="white"/>
<path d="M28.6579 16.6294C28.6579 16.6294 28.9484 16.3419 29.0936 16.3419C29.0936 16.3419 32.1434 16.6294 32.6759 16.246C32.6759 16.246 33.1599 16.1502 33.2568 16.246C33.2568 16.246 33.6924 16.6294 33.6924 16.8211C33.6924 16.8211 33.644 17.1086 33.1115 16.9169C33.1115 16.9169 29.6745 16.9649 29.4809 16.9649C29.5293 16.9649 28.5611 17.1565 28.6579 16.6294Z" fill="white"/>
<path d="M28.6579 16.6294C28.6579 16.6294 28.9484 16.3419 29.0936 16.3419C29.0936 16.3419 32.1434 16.6294 32.6759 16.246C32.6759 16.246 33.1599 16.1502 33.2568 16.246C33.2568 16.246 33.6924 16.6294 33.6924 16.8211C33.6924 16.8211 33.644 17.1086 33.1115 16.9169C33.1115 16.9169 29.6745 16.9649 29.4809 16.9649C29.5293 16.9649 28.5611 17.1565 28.6579 16.6294Z" stroke="black" stroke-width="0.2305"/>
<path d="M29.0452 17.5879C29.0452 17.5879 29.0452 17.3482 29.4808 17.3482L33.7892 17.3003C33.7892 17.3003 34.1765 17.492 34.1765 16.7732C34.1765 16.7732 34.3217 13.4665 34.3701 9.82428C34.3701 8.72204 34.4185 7.61981 34.3701 6.5655C34.3701 6.5655 34.2733 6.13419 34.1765 6.03834C34.1765 6.03834 34.1765 5.55911 34.709 5.7508C34.709 5.7508 35.1447 5.79872 35.0478 6.46965L35.0962 7.52396C35.0962 7.52396 34.9994 8.00319 35.8224 7.85942C35.8224 7.85942 36.6453 8.00319 36.6937 8.29073C36.6937 8.29073 36.9358 8.91374 35.9676 8.81789H35.2415C35.2415 8.81789 34.951 9.00958 35.0478 9.34505L34.8542 13.8019C34.8542 13.8019 34.8058 14.5687 35.5319 14.5208C35.5319 14.5208 36.3065 14.4728 36.4517 14.7125C36.4517 14.7125 36.9842 15.4792 35.8224 15.4313C35.8224 15.4313 35.0962 15.3834 34.951 15.5272C34.951 15.5272 34.8058 15.6709 34.7574 17.1086C34.7574 17.1086 34.8058 17.9712 34.1765 17.8754C34.1765 17.8754 29.9165 17.9233 29.5293 17.8275C29.5293 17.8275 29.142 17.9233 29.0452 17.5879Z" fill="white"/>
<path d="M23.575 5.65495L23.4781 15.3834C23.4781 15.3834 23.4297 15.8147 24.2043 15.9105C24.2043 15.9105 25.0756 16.0064 25.3177 15.9105C25.3177 15.9105 25.8986 15.8626 27.3992 15.9585C27.3992 15.9585 27.7865 16.3419 27.7865 15.8626C27.7865 15.8626 28.0286 8.00319 27.9317 6.32588C27.9317 6.32588 27.8833 5.60703 27.3992 5.60703C27.3992 5.60703 25.0756 5.79872 24.882 5.60703L23.9622 5.36741C23.8654 5.36741 23.5265 5.41534 23.575 5.65495Z" fill="white"/>
<path d="M28.3673 6.13418C28.3673 6.13418 28.2705 10.6869 28.3189 10.8786L28.2705 14.7125L28.1252 16.0543C28.1252 16.0543 28.3189 16.3419 28.4641 16.1502C28.4641 16.1502 29.4323 15.9105 30.0616 16.0064C30.0616 16.0064 32.0463 16.1981 32.4336 15.8626C32.4336 15.8626 32.7241 16.0064 32.8209 15.5272C32.8209 15.5272 32.9177 7.04473 32.8693 6.90096C32.8693 6.90096 32.9661 5.70288 32.9177 5.55911C32.9177 5.55911 32.8693 5.27157 32.3852 5.51118C32.3852 5.51118 32.4336 5.7508 29.5291 5.65495C29.5291 5.65495 28.4641 5.65495 28.3673 6.13418Z" fill="white"/>
<path d="M33.2567 5.99041L33.2083 15.5751C33.2083 15.5751 33.4503 16.4377 33.8376 16.3419C33.8376 16.3419 33.886 16.1502 33.9344 15.8626L34.0796 6.75719C34.0796 6.70926 33.7892 5.27156 33.2567 5.99041Z" fill="white"/>
<path d="M33.2567 5.99041L33.2083 15.5751C33.2083 15.5751 33.4503 16.4377 33.8376 16.3419C33.8376 16.3419 33.886 16.1502 33.9344 15.8626L34.0796 6.75719C34.0796 6.70926 33.7892 5.27156 33.2567 5.99041Z" stroke="black" stroke-width="0.2305"/>
<path d="M29.4807 8.86581C29.3839 8.6262 30.0132 8.57827 30.0132 8.57827L30.3037 8.6262C30.4973 8.57827 30.7393 8.67412 30.7393 8.67412C30.933 9.00958 30.5941 9.20128 30.5941 9.20128L30.4973 9.63259C30.4489 9.96805 30.4973 12.8434 30.4973 12.8434C30.5457 12.9872 30.7877 13.2748 30.7877 13.2748C30.7877 13.5623 30.4489 13.4665 30.4489 13.4665L29.5775 13.5144C29.2871 13.4665 29.3839 13.1789 29.3839 13.1789C29.6744 13.0351 29.7712 12.4601 29.7712 12.4601V9.44089L29.4807 8.86581Z" fill="#1E1E1E"/>
<path d="M25.3661 11.6933L25.3177 12.6518L25.6082 13.0831C25.8018 13.3227 25.4629 13.5144 25.4629 13.5144L24.4948 13.4185C24.3011 13.3227 24.4948 13.0351 24.4948 13.0351C24.7368 12.8914 24.7852 12.508 24.7852 12.508L24.7368 10.7348L24.7852 9.4409C24.7852 9.29713 24.5432 9.00958 24.5432 9.00958C24.3495 8.96166 24.398 8.72205 24.398 8.72205C24.4464 8.57828 24.9789 8.67412 24.9789 8.67412H26.2859C27.4961 9.05751 27.3509 9.96805 27.3509 9.96805C27.4477 10.8307 26.4795 11.2141 26.4795 11.2141L26.4311 11.6933L27.3025 13.0831C27.4477 13.2268 27.4477 13.3227 27.4477 13.3227C27.3025 13.6581 26.8184 13.3227 26.8184 13.3227L25.6566 11.5974C25.5598 11.4537 25.3661 11.6933 25.3661 11.6933ZM25.4145 9.29712C25.4629 9.96805 25.4629 10.8786 25.4629 10.8786C26.0439 11.3099 26.3827 10.6869 26.3827 10.6869C27.1573 9.96805 26.3827 9.29712 26.2375 9.10543C26.0923 8.91374 25.5114 9.05751 25.5114 9.05751L25.4145 9.29712Z" fill="#1E1E1E"/>
<path d="M18.9761 23.4824C18.9761 23.4824 19.1697 23.3866 19.2665 23.2428C19.2665 23.2428 19.8958 23.1949 19.9927 23.099L22.0258 23.2428C22.0258 23.2428 24.0106 23.3866 24.8819 22.7636C24.8819 22.7636 25.1724 22.7636 25.4144 22.8594C25.4144 22.8594 25.8501 22.9553 25.9469 23.147L27.1087 23.099C27.1087 23.099 27.7865 23.2907 27.7381 23.722V24.2492C27.7381 24.2492 27.5928 25.3514 27.9317 25.3994H28.803C28.803 25.3994 29.5292 25.7348 29.4324 26.1661C29.4324 26.1661 29.4808 26.7891 28.803 26.885C28.803 26.885 28.1737 27.0767 27.9317 27.0288C27.9317 27.0288 27.7381 27.3163 27.6896 27.6518L27.6412 31.6294C27.6412 31.6294 27.5928 32.0607 28.2221 32.0128C28.2221 32.0128 29.1903 31.9169 29.4324 32.4441C29.4324 32.4441 29.6744 33.3067 29.1903 33.4505L28.803 33.6422L28.0285 33.7859C28.0285 33.7859 27.6896 33.8339 27.6412 34.4089V35.4633C27.6412 35.4633 27.6896 36.1821 27.1087 36.1821L26.2374 36.23C26.2374 36.23 26.0437 36.4217 25.6081 36.278C25.6081 36.278 20.3799 36.3738 20.2347 36.3259L19.6054 36.4217C19.6054 36.4217 18.9277 37.0447 18.3952 36.5655L17.9595 36.23C17.9595 36.23 17.669 36.278 17.5238 36.278C17.3786 36.23 11.7632 36.3259 11.7632 36.3259C11.7632 36.3259 10.553 36.4696 10.4562 36.0383C10.4562 36.0383 10.3109 34.5048 10.3593 34.3131C10.3593 34.3131 10.3593 33.8818 10.0689 33.8339C10.0689 33.8339 8.85867 33.7859 8.85867 33.6422C8.85867 33.6422 8.22936 33.2109 8.42299 32.7316C8.42299 32.7316 8.61663 32.1086 9.29435 32.0607C9.29435 32.0607 10.2625 32.2045 10.2625 31.9169C10.2625 31.9169 10.3109 31.7252 10.3109 31.4377C10.3109 31.4377 10.3593 27.8434 10.3593 27.6038C10.3593 27.6038 10.4562 27.1246 10.0689 27.1246C10.0689 27.1246 9.63321 27.2684 9.34276 27.0767C9.34276 27.0767 8.61663 27.1246 8.4714 26.5495C8.4714 26.5495 8.32618 26.1661 8.51981 25.8786C8.51981 25.8786 8.85867 25.2077 9.82684 25.4473C9.82684 25.4473 10.3593 25.5911 10.4562 25.2077L10.4077 23.77C10.4077 23.77 10.2625 23.3866 11.0371 23.147C11.0371 23.147 12.0052 23.4345 12.3441 22.9553C12.3441 22.9553 12.683 22.2843 12.9734 22.7636C12.9734 22.7636 13.5543 23.2907 15.1518 23.2428C15.1518 23.2428 17.9111 23.0511 17.9595 23.147C17.9595 23.147 18.6372 23.2428 18.8309 23.4345L18.9761 23.4824Z" fill="#1E1E1E"/>
<path d="M18.9761 23.4345C18.9761 23.4345 19.1697 23.3387 19.2665 23.1949C19.2665 23.1949 19.8958 23.147 19.9927 23.0511L22.0258 23.1949C22.0258 23.1949 24.0106 23.3387 24.8819 22.7157C24.8819 22.7157 25.1724 22.7157 25.4144 22.8115C25.4144 22.8115 25.8501 22.9073 25.9469 23.099L27.1087 23.0511C27.1087 23.0511 27.7865 23.2428 27.7381 23.6741V24.2013C27.7381 24.2013 27.5928 25.3035 27.9317 25.3514H28.803C28.803 25.3514 29.5292 25.6869 29.4324 26.1182C29.4324 26.1182 29.4808 26.7412 28.803 26.8371C28.803 26.8371 28.1737 27.0288 27.9317 26.9808C27.9317 26.9808 27.7381 27.2684 27.6896 27.6038L27.6412 31.6294C27.6412 31.6294 27.5928 32.0607 28.2221 32.0128C28.2221 32.0128 29.1903 31.9169 29.4324 32.4441C29.4324 32.4441 29.6744 33.3067 29.1903 33.4505L28.803 33.6422L28.0285 33.7859C28.0285 33.7859 27.6896 33.8339 27.6412 34.4089V35.4633C27.6412 35.4633 27.6896 36.1821 27.1087 36.1821L26.2374 36.23C26.2374 36.23 26.0437 36.4217 25.6081 36.278C25.6081 36.278 20.3799 36.3738 20.2347 36.3259L19.6054 36.4696C19.6054 36.4696 18.9277 37.0926 18.3952 36.6134L17.9595 36.278C17.9595 36.278 17.669 36.3259 17.5238 36.3259C17.3786 36.278 11.7632 36.3738 11.7632 36.3738C11.7632 36.3738 10.553 36.5176 10.4562 36.0863C10.4562 36.0863 10.3109 34.5527 10.3593 34.361C10.3593 34.361 10.3593 33.9297 10.0689 33.8818C10.0689 33.8818 8.85867 33.8339 8.85867 33.6901C8.85867 33.6901 8.22936 33.2109 8.42299 32.7796C8.42299 32.7796 8.61663 32.1565 9.29435 32.1086C9.29435 32.1086 10.2625 32.2524 10.2625 31.9649C10.2625 31.9649 10.3109 31.7732 10.3109 31.4856C10.3109 31.4856 10.3593 27.8914 10.3593 27.6518C10.3593 27.6518 10.4562 27.1725 10.0689 27.1725C10.0689 27.1725 9.63321 27.3163 9.34276 27.1246C9.34276 27.1246 8.61663 27.1725 8.4714 26.5974C8.4714 26.5974 8.32618 26.2141 8.51981 25.9265C8.51981 25.9265 8.85867 25.2556 9.82684 25.4952C9.82684 25.4952 10.3593 25.639 10.4562 25.2556L10.4077 23.8179C10.4077 23.8179 10.2625 23.4345 11.0371 23.1949C11.0371 23.1949 12.0052 23.4824 12.3441 23.0032C12.3441 23.0032 12.683 22.3323 12.9734 22.8115C12.9734 22.8115 13.5543 23.3387 15.1518 23.2907C15.1518 23.2907 17.9111 23.099 17.9595 23.1949C17.9595 23.1949 18.6372 23.2907 18.8309 23.4824L18.9761 23.4345Z" stroke="black" stroke-width="0.2189"/>
<path d="M19.7992 35.3674C19.7992 35.3674 20.1864 35.1757 20.4285 35.2716C20.6705 35.3195 24.2527 35.2236 24.2527 35.2236C24.2527 35.2236 25.8018 35.3674 26.0439 35.1278L26.4311 34.984C26.4311 34.984 26.5764 34.7923 26.5764 34.5527C26.5764 34.3131 26.6248 33.4984 26.6248 33.4984L26.7216 33.2109C26.7216 33.2109 26.6732 32.9233 26.7216 24.8243C26.7216 24.8243 26.8184 24.2013 26.4311 23.8179C26.4311 23.8179 26.4311 23.5783 26.5764 23.6262C26.7216 23.6741 26.6248 23.6741 26.6248 23.6741C26.6248 23.6741 27.1573 23.5304 27.2541 23.722C27.2541 23.722 27.4961 24.4409 27.3025 24.8722C27.3025 24.8722 27.2541 25.7348 27.6898 25.7348C27.6898 25.7348 27.8834 25.9265 28.2223 25.8307C28.2223 25.8307 28.9968 25.9265 28.9968 26.1661C28.9968 26.1661 28.9968 26.6933 28.4643 26.5974L27.7382 26.6454C27.7382 26.6454 27.2541 26.7412 27.3025 27.3163C27.3509 27.8914 27.2541 32.0128 27.2541 32.0128C27.2541 32.0128 27.2541 32.492 28.0286 32.492C28.0286 32.492 28.9968 32.4441 28.9968 32.7316C28.9968 32.7316 29.2388 33.3546 28.5611 33.3546C28.5611 33.3546 27.2541 33.3067 27.3509 33.6901C27.3509 33.6901 27.2541 34.5527 27.2057 34.6965C27.2057 34.6965 27.3509 35.4153 27.1573 35.5112C27.1573 35.5112 27.0605 35.8946 26.2375 35.8466C26.2375 35.8466 20.961 35.7987 20.138 35.8946C20.138 35.8466 19.6539 35.7987 19.7992 35.3674Z" fill="white"/>
<path d="M18.8309 34.7923C18.8309 34.7923 19.3634 34.8882 19.3634 35.3674C19.3634 35.8466 19.4118 36.1342 19.0729 36.1821C18.7825 36.23 18.4436 36.1342 18.3468 35.7508C18.25 35.3674 18.3952 34.8882 18.8309 34.7923Z" fill="white"/>
<path d="M19.4603 34.5527C19.4603 34.5527 19.9928 34.1693 20.2348 34.2652C20.2348 34.2652 23.0425 34.4569 23.8654 34.3131C24.7368 34.1693 24.2043 34.2652 24.2043 34.2652C24.2043 34.2652 24.9304 34.2652 25.1725 33.9776C25.1725 33.9776 25.3661 33.9297 25.5113 34.1214L25.947 34.6006C25.947 34.6006 25.9954 34.8882 25.4629 34.8882C25.4629 34.8882 20.4768 34.8882 20.3316 34.9361C20.2832 34.9361 19.3634 35.0799 19.4603 34.5527Z" fill="white"/>
<path d="M19.4603 34.5527C19.4603 34.5527 19.9928 34.1693 20.2348 34.2652C20.2348 34.2652 23.0425 34.4569 23.8654 34.3131C24.7368 34.1693 24.2043 34.2652 24.2043 34.2652C24.2043 34.2652 24.9304 34.2652 25.1725 33.9776C25.1725 33.9776 25.3661 33.9297 25.5113 34.1214L25.947 34.6006C25.947 34.6006 25.9954 34.8882 25.4629 34.8882C25.4629 34.8882 20.4768 34.8882 20.3316 34.9361C20.2832 34.9361 19.3634 35.0799 19.4603 34.5527Z" stroke="black" stroke-width="0.2305"/>
<path d="M12.1988 23.8179C12.1988 23.8179 12.3925 23.8179 12.3925 24.2013L12.344 33.3546C12.344 33.3546 12.4409 33.9776 11.9084 34.361C11.9084 34.361 11.6179 34.6965 11.6179 34.1693L11.7631 24.8243C11.7147 24.7764 11.7631 24.1054 12.1988 23.8179Z" fill="white"/>
<path d="M12.1988 23.8179C12.1988 23.8179 12.3925 23.8179 12.3925 24.2013L12.344 33.3546C12.344 33.3546 12.4409 33.9776 11.9084 34.361C11.9084 34.361 11.6179 34.6965 11.6179 34.1693L11.7631 24.8243C11.7147 24.7764 11.7631 24.1054 12.1988 23.8179Z" stroke="black" stroke-width="0.2305"/>
<path d="M11.7148 23.8658C11.7148 23.8658 11.3276 24.5367 11.376 24.6805L11.3276 26.6933C11.3276 26.6933 11.2791 27.9872 11.3276 28.131C11.376 28.2748 11.2791 32.1086 11.2791 32.1086C11.2791 32.1086 11.2307 32.8275 11.2791 33.0671V34.6965C11.2791 34.6965 11.2307 35.4153 11.7632 35.2236C11.7632 35.2236 17.1366 35.0799 17.4755 35.1757C17.4755 35.1757 17.9595 35.2716 17.7659 35.5112C17.7659 35.5112 17.7659 35.7029 17.427 35.655C17.427 35.655 14.9098 35.8946 12.5862 35.7987C12.5862 35.7987 11.0371 35.8946 10.9403 35.7029C10.9403 35.7029 10.6982 35.6549 10.6982 34.7923C10.6982 34.7923 10.6982 33.9776 10.6498 33.8339C10.6498 33.8339 10.6982 33.4026 9.9237 33.3067C9.9237 33.3067 8.85871 33.4984 8.8103 32.8754C8.8103 32.8754 8.95553 32.4441 10.0205 32.492C10.0205 32.492 10.7951 32.6358 10.6498 32.0128L10.7466 27.508C10.7466 27.508 10.8435 26.7412 10.311 26.6933C10.311 26.6933 9.82688 26.6454 9.68166 26.7412C9.68166 26.7412 8.8103 26.7412 8.85871 26.2141C8.85871 26.2141 9.14916 25.6869 10.0689 25.7827C10.0689 25.7827 10.7466 25.9265 10.7951 25.1597C10.7951 25.1597 10.7466 23.6262 11.1339 23.5303C11.1339 23.6262 11.9085 23.6262 11.7148 23.8658Z" fill="white"/>
<path d="M12.6345 33.8818C12.6345 33.8818 13.0701 34.3131 13.7479 34.3131L17.911 34.361C17.911 34.361 18.3951 34.4089 18.3467 34.6486C18.3467 34.6486 18.2983 35.032 17.7174 34.8882L12.6829 34.8403L12.1504 34.8882C12.1504 34.8882 11.7631 34.8403 12.344 34.1214L12.6345 33.8818Z" fill="white"/>
<path d="M12.6345 33.8818C12.6345 33.8818 13.0701 34.3131 13.7479 34.3131L17.911 34.361C17.911 34.361 18.3951 34.4089 18.3467 34.6486C18.3467 34.6486 18.2983 35.032 17.7174 34.8882L12.6829 34.8403L12.1504 34.8882C12.1504 34.8882 11.7631 34.8403 12.344 34.1214L12.6345 33.8818Z" stroke="black" stroke-width="0.2305"/>
<path d="M25.4629 33.4984C25.4629 33.4984 25.8502 34.2172 25.9954 34.3131C25.9954 34.3131 26.3342 34.6965 26.2374 34.0256L26.2858 25.3035C26.2858 25.3035 26.189 25.016 26.2858 24.5367L25.8986 23.8658C25.8986 23.8658 25.5113 23.5783 25.5113 24.0575L25.4629 33.3546V33.4984Z" fill="white"/>
<path d="M25.4629 33.4984C25.4629 33.4984 25.8502 34.2173 25.9954 34.3131C25.9954 34.3131 26.3342 34.6965 26.2374 34.0256L26.2858 25.3035C26.2858 25.3035 26.189 25.016 26.2858 24.5367L25.8986 23.8658C25.8986 23.8658 25.5113 23.5783 25.5113 24.0575L25.4629 33.3546V33.4984Z" stroke="black" stroke-width="0.2305"/>
<path d="M18.6857 29.3291C18.6857 29.3291 18.7341 30.0479 18.6373 30.7668C18.5889 31.1502 18.7825 32.9233 18.5889 33.8339C18.5889 33.8339 18.5405 34.1214 17.9112 33.8818C17.9112 33.8818 13.9901 33.9776 13.8933 33.8339C13.8933 33.8339 12.8283 33.8818 12.7314 33.3067C12.7314 33.3067 12.8767 29.1374 12.7799 28.9936C12.7799 28.9936 12.7314 26.7412 12.7799 26.5016C12.7799 26.5016 12.8767 24.393 12.8283 24.1534C12.8283 24.1534 12.8767 23.6741 12.7799 23.4345C12.7799 23.4345 12.7799 23.147 13.3123 23.2907C13.3123 23.2907 13.506 23.6262 14.5226 23.4824C14.5226 23.4824 15.2487 23.5783 15.9748 23.5303C15.9748 23.5303 17.5239 23.3866 17.9112 23.5303C17.9112 23.5303 18.5405 23.3866 18.6857 24.0575L18.6373 25.9265L18.8309 26.5495L19.0246 26.4057L19.1214 25.9265L19.1698 23.9137C19.1698 23.9137 19.315 23.5304 19.7991 23.4824C19.7991 23.4824 20.5736 23.3866 20.6705 23.4345C20.7673 23.4824 22.4616 23.5783 22.8973 23.4824C23.3329 23.3866 23.4298 23.77 24.8336 23.099C24.8336 23.099 25.2209 23.147 25.2209 23.3866C25.2209 23.3866 25.0757 25.9744 25.2209 26.4537C25.2209 26.4537 25.2209 31.1981 25.1241 31.5335L25.1725 33.0671C25.1725 33.0671 25.2209 33.738 24.1559 33.7859C24.1559 33.7859 24.8336 33.8818 20.6221 33.738C20.6221 33.738 19.9443 33.6901 19.2182 34.0256C19.2182 34.0256 19.073 33.9776 19.073 33.5942C19.073 33.5942 19.2182 32.1565 19.073 30.7668L19.0246 29.2332L18.6857 29.3291Z" fill="white"/>
<path d="M15.9262 27.1725C15.9262 27.1725 16.023 29.4249 15.9262 29.7125L15.8778 30.1917C15.8778 30.1917 16.023 30.5272 16.1683 30.623C16.1683 30.623 16.3135 31.0543 15.9746 31.0064C15.9746 31.0064 15.2001 30.9585 15.0065 30.9585C15.0065 30.9585 14.5708 30.9585 15.0065 30.4313C15.0065 30.4313 15.1517 30.2396 15.1033 29.6645C15.1033 29.6645 15.1033 27.1246 15.1517 26.9808C15.1517 26.9808 15.2001 26.6454 15.0065 26.5495L14.6192 26.5974L14.1835 27.0288C14.1835 27.0288 14.0867 27.4601 13.8931 26.9808V26.7412L14.1835 26.0224L14.3772 25.9744C14.3772 25.9744 14.6676 26.1661 14.9096 26.2141H16.3619L16.8944 25.9744C16.8944 25.9744 17.088 26.0224 17.0396 26.262C17.0396 26.262 17.1364 26.9808 16.7492 27.0288C16.7492 27.0288 16.5071 26.9329 16.3619 26.5974C16.3619 26.6933 15.9746 26.5016 15.9262 27.1725Z" fill="#1E1E1E"/>
<path d="M22.7035 26.3578C22.7035 26.3578 21.5417 26.262 21.4933 27.508C21.4933 27.508 21.3481 28.3706 22.6551 28.8978C22.6551 28.8978 23.6233 29.3291 23.5265 29.9042C23.5265 29.9042 23.3813 30.9585 22.4131 30.4313C22.4131 30.4313 21.929 30.1917 21.9774 29.9042C21.9774 29.9042 21.8322 29.5687 21.6386 29.6166C21.6386 29.6166 21.4449 29.6645 21.5417 30.6709C21.5417 30.6709 21.5417 31.0543 21.9774 30.6709L22.2195 30.7188C22.2195 30.7188 23.0424 31.3898 23.7685 30.5751C23.7685 30.5751 24.5431 29.8562 23.9622 29.0415C23.9622 29.0415 23.5749 28.4185 22.8488 28.131C22.8488 28.131 22.171 27.8435 22.0258 27.3163C22.0258 27.3163 22.2195 26.4057 23.0424 26.885C23.0424 26.885 23.3329 27.2684 23.5265 27.3163C23.5265 27.3163 23.7685 27.3163 23.7201 26.7891L23.6717 26.3578C23.6717 26.3578 23.6233 26.0224 23.1876 26.3578C23.1876 26.3578 22.8004 26.5016 22.7035 26.3578Z" fill="#1E1E1E"/>
<path d="M18.9761 25.7348C19.1698 25.8786 19.2182 26.2141 19.2182 26.2141C19.8475 27.8435 20.3316 30.1438 20.3316 30.1438C20.4768 30.4313 20.7673 30.6709 20.7673 30.6709C21.2998 30.8626 20.7673 31.0064 20.7673 31.0064C20.5736 31.1022 19.8475 30.9585 19.8475 30.9585C19.4602 30.9105 19.6539 30.7668 19.6539 30.7668C19.7991 30.623 19.7023 30 19.7023 30C19.6539 29.7604 19.4118 29.377 19.4118 29.377C19.2666 29.3291 19.073 29.5687 19.073 29.5687C19.073 29.5687 18.7341 29.7125 18.6857 29.5687C18.6373 29.4249 18.4436 29.3291 18.4436 29.3291C18.0564 29.3291 17.9111 30.2396 17.9111 30.2396C18.1048 31.0064 17.9111 30.8626 17.9111 30.8626C17.7175 31.1022 17.1366 30.9105 17.1366 30.9105C16.8462 30.8626 17.0398 30.623 17.0398 30.623C17.3787 30.5751 17.4755 30.1917 17.4755 30.1917C17.6207 30 18.5889 26.0224 18.5889 26.0224C18.6857 25.9265 18.7341 25.5911 18.9761 25.7348ZM18.492 27.7476C18.4436 27.8914 18.25 28.754 18.25 28.754L18.4436 29.0415C18.4436 29.0415 18.9277 29.0895 19.1214 29.0895C19.315 29.0895 19.315 28.9457 19.315 28.8019C19.315 28.6581 18.9761 27.7476 18.9761 27.7476L18.8309 27.5559L18.492 27.7476Z" fill="#1E1E1E"/>
<path d="M10.6499 18.4026C10.6499 18.4026 10.311 19.4569 8.81033 18.3546L3.67902 18.2588C3.67902 18.2588 3.00129 18.4505 2.90448 17.7796C2.90448 17.7796 3.0497 16.3898 2.95289 16.246C2.95289 16.246 3.00129 15.8626 2.32357 15.8626C2.32357 15.8626 1.30699 16.0064 1.25858 15.0958C1.25858 15.0958 1.06495 14.1374 2.51721 14.1374C2.51721 14.1374 2.95289 14.3291 3.00129 13.754C3.00129 13.754 2.95289 9.82428 2.95289 9.48882C2.95289 9.48882 3.09811 9.10543 2.37198 9.05751C2.37198 9.05751 1.3554 9.2492 1.25858 8.57827C1.25858 8.57827 1.21017 7.57189 1.88789 7.52396C1.88789 7.52396 2.71084 7.57188 2.85607 7.38019C2.85607 7.38019 3.0497 7.47604 3.00129 6.75719L3.0497 5.51118C3.0497 5.51118 3.14652 5.17572 3.67902 5.22364C3.67902 5.22364 4.64719 5.27157 4.74401 5.17572C4.74401 5.17572 4.93764 4.88818 5.03446 4.79233C5.03446 4.79233 5.51854 4.74441 5.61536 4.88818C5.61536 4.88818 6.34149 5.36741 9.14919 5.17572C9.14919 5.17572 9.58487 5.17572 9.68169 5.31949C9.68169 5.31949 10.2142 5.70288 10.5046 5.27157C10.5046 5.27157 10.9403 5.17572 12.3442 5.22364C12.3442 5.22364 13.8448 5.60703 14.8614 4.79233L15.2003 4.84026C15.2003 4.84026 15.636 5.55911 15.9264 5.31949C15.9264 5.31949 16.8462 5.22364 16.9914 5.41534C16.9914 5.41534 17.2819 5.84665 17.1366 7.04473C17.1366 7.04473 16.943 7.57189 17.8628 7.57189C17.8628 7.57189 18.8793 7.38019 18.7341 8.33866C18.7341 8.33866 19.0246 9.39297 17.3303 9.2492C17.3303 9.2492 17.1366 9.53674 17.1366 9.77636C17.1366 9.77636 17.0882 13.2268 17.0882 13.6102C17.0882 13.6102 17.0398 14.1374 17.8143 14.1374C17.8143 14.1374 18.7825 14.0895 18.8309 14.9521C18.8309 14.9521 18.9762 16.1022 17.5239 15.9105C17.5239 15.9105 17.0882 15.9585 17.0398 16.246L16.943 17.7796C16.943 17.7796 16.9914 18.5463 16.12 18.3546C15.9748 18.3546 11.3276 18.4505 10.9403 18.3067C10.9403 18.3067 10.7467 18.2588 10.6499 18.4026Z" fill="#1E1E1E"/>
<path d="M10.6499 18.4026C10.6499 18.4026 10.311 19.4569 8.81033 18.3546L3.67902 18.2588C3.67902 18.2588 3.00129 18.4505 2.90448 17.7796C2.90448 17.7796 3.0497 16.3898 2.95289 16.246C2.95289 16.246 3.00129 15.8626 2.32357 15.8626C2.32357 15.8626 1.30699 16.0064 1.25858 15.0958C1.25858 15.0958 1.06495 14.1374 2.51721 14.1374C2.51721 14.1374 2.95289 14.3291 3.00129 13.754C3.00129 13.754 2.95289 9.82428 2.95289 9.48882C2.95289 9.48882 3.09811 9.10543 2.37198 9.05751C2.37198 9.05751 1.3554 9.2492 1.25858 8.57827C1.25858 8.57827 1.21017 7.57188 1.88789 7.52396C1.88789 7.52396 2.71084 7.57188 2.85607 7.38019C2.85607 7.38019 3.0497 7.47604 3.00129 6.75719L3.0497 5.51118C3.0497 5.51118 3.14652 5.17572 3.67902 5.22364C3.67902 5.22364 4.64719 5.27157 4.74401 5.17572C4.74401 5.17572 4.93764 4.88818 5.03446 4.79233C5.03446 4.79233 5.51854 4.74441 5.61536 4.88818C5.61536 4.88818 6.34149 5.36741 9.14919 5.17572C9.14919 5.17572 9.58487 5.17572 9.68169 5.31949C9.68169 5.31949 10.2142 5.70288 10.5046 5.27157C10.5046 5.27157 10.9403 5.17572 12.3442 5.22364C12.3442 5.22364 13.8448 5.60703 14.8614 4.79233L15.2003 4.84026C15.2003 4.84026 15.636 5.55911 15.9264 5.31949C15.9264 5.31949 16.8462 5.22364 16.9914 5.41534C16.9914 5.41534 17.2819 5.84665 17.1366 7.04473C17.1366 7.04473 16.943 7.57189 17.8628 7.57189C17.8628 7.57189 18.8793 7.38019 18.7341 8.33866C18.7341 8.33866 19.0246 9.39297 17.3303 9.2492C17.3303 9.2492 17.1366 9.53674 17.1366 9.77636C17.1366 9.77636 17.0882 13.2268 17.0882 13.6102C17.0882 13.6102 17.0398 14.1374 17.8143 14.1374C17.8143 14.1374 18.7825 14.0895 18.8309 14.9521C18.8309 14.9521 18.9762 16.1022 17.5239 15.9105C17.5239 15.9105 17.0882 15.9585 17.0398 16.246L16.943 17.7796C16.943 17.7796 16.9914 18.5463 16.12 18.3546C15.9748 18.3546 11.3276 18.4505 10.9403 18.3067C10.9403 18.3067 10.7467 18.2588 10.6499 18.4026Z" stroke="black" stroke-width="0.2189"/>
<path d="M4.88922 5.89457C4.88922 5.89457 4.93762 6.51757 4.93762 6.66134C4.93762 6.80511 4.84081 15.4313 4.84081 15.4313C4.84081 15.4313 4.93762 16.1022 4.35672 16.4377C4.35672 16.4377 4.21149 16.4856 4.16309 16.0543L4.21149 6.94888C4.2599 6.94888 4.30831 5.84665 4.88922 5.89457Z" fill="white"/>
<path d="M4.88922 5.89457C4.88922 5.89457 4.93762 6.51757 4.93762 6.66134C4.93762 6.80511 4.84081 15.4313 4.84081 15.4313C4.84081 15.4313 4.93762 16.1022 4.35672 16.4377C4.35672 16.4377 4.21149 16.4856 4.16309 16.0543L4.21149 6.94888C4.2599 6.94888 4.30831 5.84665 4.88922 5.89457Z" stroke="black" stroke-width="0.2305"/>
<path d="M3.87271 16.5335C3.87271 16.5335 3.92112 8.00319 3.92112 7.8115C3.87271 7.66773 3.92112 7.95527 3.92112 7.95527C3.92112 7.95527 3.82431 6.46965 4.21158 5.84665C4.21158 5.84665 4.06635 5.31949 3.38863 5.99042V7.23642C3.38863 7.23642 3.38863 7.95527 2.75932 7.90735C2.75932 7.90735 2.03319 7.85943 1.69432 8.19489C1.69432 8.19489 1.50069 8.86582 2.22682 8.72205C2.22682 8.72205 3.34022 8.72205 3.38863 9.15336L3.34022 13.754C3.34022 13.754 3.58226 14.5208 2.71091 14.5208C2.71091 14.5208 1.69432 14.4728 1.69432 15.0958C1.69432 15.0958 1.88796 15.623 2.80772 15.4792C2.80772 15.4792 3.43704 15.623 3.43704 16.1981V17.3482C3.43704 17.3482 3.38863 17.8275 3.96953 17.8275H8.71358C8.71358 17.8275 8.95562 17.8754 8.95562 17.5399C8.95562 17.5399 8.90722 17.3003 8.56836 17.3003L4.59884 17.2524C4.59884 17.2524 3.92112 17.4441 3.87271 16.5335Z" fill="white"/>
<path d="M4.69547 16.5815C4.69547 16.5815 4.55025 17.0128 5.03433 16.9169H8.1809L9.05225 17.1086C9.05225 17.1086 9.92361 16.9169 9.05225 16.3898C9.05225 16.3898 6.24455 16.4377 6.00251 16.3419C6.00251 16.3419 5.4216 16.1981 5.27638 16.1502C5.27638 16.1981 4.98592 16.0543 4.69547 16.5815Z" fill="white"/>
<path d="M4.69547 16.5815C4.69547 16.5815 4.55025 17.0128 5.03433 16.9169H8.1809L9.05225 17.1086C9.05225 17.1086 9.92361 16.9169 9.05225 16.3898C9.05225 16.3898 6.24455 16.4377 6.00251 16.3419C6.00251 16.3419 5.4216 16.1981 5.27638 16.1502C5.27638 16.1981 4.98592 16.0543 4.69547 16.5815Z" stroke="black" stroke-width="0.2305"/>
<path d="M9.92379 17.0128C9.92379 17.0128 9.34288 17.0128 9.39129 17.7796C9.39129 17.7796 9.4397 18.3546 10.069 18.3546C10.069 18.3546 10.6015 18.2588 10.5531 17.6358C10.5531 17.6358 10.2142 16.869 9.92379 17.0128Z" fill="white"/>
<path d="M10.3594 16.6773C10.3594 16.6773 10.6498 16.3898 10.795 16.3898C10.795 16.3898 13.8448 16.6773 14.3773 16.2939C14.3773 16.2939 14.8129 16.1981 14.9582 16.2939C14.9582 16.2939 15.3939 16.6773 15.3939 16.869C15.3939 16.869 15.3454 17.1565 14.8129 17.0128C14.8129 17.0128 11.3275 17.0607 11.1823 17.0607C11.2307 17.0128 10.2625 17.2524 10.3594 16.6773Z" fill="white"/>
<path d="M10.3594 16.6773C10.3594 16.6773 10.6498 16.3898 10.795 16.3898C10.795 16.3898 13.8448 16.6773 14.3773 16.2939C14.3773 16.2939 14.8129 16.1981 14.9582 16.2939C14.9582 16.2939 15.3939 16.6773 15.3939 16.869C15.3939 16.869 15.3454 17.1565 14.8129 17.0128C14.8129 17.0128 11.3275 17.0607 11.1823 17.0607C11.2307 17.0128 10.2625 17.2524 10.3594 16.6773Z" stroke="black" stroke-width="0.2305"/>
<path d="M10.8435 17.5879C10.8435 17.5879 10.8435 17.3482 11.2792 17.3482L15.5876 17.3003C15.5876 17.3003 15.9748 17.492 15.9748 16.7732C15.9748 16.7732 16.1201 13.4665 16.1685 9.82428C16.1685 8.72204 16.2169 7.61981 16.1685 6.5655C16.1685 6.5655 16.0716 6.13419 15.9748 6.03834C15.9748 6.03834 15.9748 5.55911 16.5073 5.7508C16.5073 5.7508 16.943 5.79872 16.8462 6.46965L16.8946 7.52396C16.8946 7.52396 16.7978 7.95527 17.6207 7.85942C17.6207 7.85942 18.4437 7.95527 18.4921 8.29073C18.4921 8.29073 18.7341 8.91374 17.7659 8.81789H17.0398C17.0398 8.81789 16.7494 9.00958 16.8462 9.34505L16.7494 13.754C16.7494 13.754 16.701 14.5208 17.4271 14.4728C17.4271 14.4728 18.2016 14.4249 18.3469 14.6645C18.3469 14.6645 18.8793 15.4313 17.7175 15.3834C17.7175 15.3834 16.9914 15.3355 16.8462 15.4792C16.8462 15.4792 16.7494 15.623 16.6525 17.0607C16.6525 17.0607 16.701 17.9233 16.0716 17.8275C16.0716 17.8275 11.8117 17.8754 11.4244 17.7796C11.3276 17.8275 10.8919 17.9233 10.8435 17.5879Z" fill="white"/>
<path d="M5.32495 5.65495L5.22814 15.3834C5.22814 15.3834 5.17973 15.8147 5.95427 15.9105C5.95427 15.9105 6.82562 16.0064 7.06767 15.9105C7.06767 15.9105 7.64857 15.8626 9.14924 15.9585C9.14924 15.9585 9.53651 16.3419 9.53651 15.8626C9.53651 15.8626 9.77855 8.00319 9.68173 6.32588C9.68173 6.32588 9.63333 5.60703 9.14924 5.60703C9.14924 5.60703 6.82562 5.79872 6.63199 5.60703L5.71222 5.36741C5.66381 5.36741 5.32495 5.41534 5.32495 5.65495Z" fill="white"/>
<path d="M15.055 5.99041L15.0066 15.5751C15.0066 15.5751 15.2486 16.4377 15.6359 16.3419C15.6359 16.3419 15.6843 16.1502 15.7327 15.8626L15.8779 6.75719C15.8779 6.70926 15.5875 5.27156 15.055 5.99041Z" fill="white"/>
<path d="M15.055 5.99041L15.0066 15.5751C15.0066 15.5751 15.2486 16.4377 15.6359 16.3419C15.6359 16.3419 15.6843 16.1502 15.7327 15.8626L15.8779 6.75719C15.8779 6.70926 15.5875 5.27156 15.055 5.99041Z" stroke="black" stroke-width="0.2305"/>
<path d="M10.1656 6.08626C10.1656 6.08626 10.0688 10.639 10.1172 10.8307L10.0688 14.6645L9.92358 16.0064C9.92358 16.0064 10.1172 16.2939 10.2624 16.1022C10.2624 16.1022 11.2306 15.8626 11.8599 15.9585C11.8599 15.9585 13.8447 16.1502 14.232 15.8147C14.232 15.8147 14.5224 15.9585 14.6192 15.4792C14.6192 15.4792 14.7645 6.99681 14.6676 6.85304C14.6676 6.85304 14.8129 5.65495 14.716 5.51118C14.716 5.51118 14.6676 5.22364 14.1835 5.46326C14.1835 5.46326 14.232 5.70288 11.3274 5.60703C11.3274 5.60703 10.214 5.60703 10.1656 6.08626Z" fill="white"/>
<path d="M9.2459 8.86581L8.95545 9.44089C8.95545 9.44089 8.27773 12.3642 7.93887 12.9872C7.93887 12.9872 7.89046 13.6102 7.35796 13.131C7.35796 13.131 6.14775 9.39297 6.09934 9.29712L5.71207 9.00958C5.71207 9.00958 5.47002 8.67412 5.9057 8.6262L7.0191 8.67412C7.0191 8.67412 7.40637 8.96166 6.87388 9.29712C6.87388 9.29712 6.92228 9.77636 7.60001 11.6454C7.60001 11.6454 7.79364 12.3642 7.98727 11.8371L8.61659 9.68051L8.42295 9.05751C8.42295 9.05751 8.22932 8.76997 8.51977 8.72204C8.51977 8.72204 9.14908 8.6262 9.2459 8.86581Z" fill="#1E1E1E"/>
<path d="M10.9886 9.39297L10.9402 12.6038L10.8434 12.8434C10.8434 12.8434 10.5529 13.2268 10.7466 13.2748C10.7466 13.2748 10.4561 13.4665 12.6829 13.4665C12.6829 13.4665 13.5543 13.6102 13.3122 12.508C13.3122 12.508 13.2154 12.1246 12.925 12.6997C12.925 12.6997 12.8282 13.1789 11.7148 13.0351C11.7148 13.0351 11.4727 12.8434 11.4727 12.6038V11.262C11.4727 11.262 11.4243 10.9265 11.9568 10.9744C11.9568 10.9744 12.5377 11.3578 12.6345 11.1661C12.6345 11.1661 12.8282 10.6869 12.6345 10.3994C12.6345 10.3994 12.3441 10.3514 12.3441 10.4952C12.3441 10.4952 12.1504 10.8786 11.6179 10.639C11.6179 10.639 11.3759 10.1597 11.5211 9.77636C11.5211 9.77636 11.4727 9.00958 11.9568 9.05751C11.9568 9.05751 12.5861 9.20128 12.6345 9.34505C12.6345 9.34505 12.7797 9.72843 12.925 9.29712L12.7797 8.76997C12.7797 8.76997 12.6829 8.57827 12.5377 8.6262C12.5377 8.6262 11.5211 8.76997 11.3759 8.67412L10.6498 8.72204C10.6498 8.72204 10.5529 9.00958 10.8918 9.15335C10.8918 9.20128 10.9886 9.2492 10.9886 9.39297Z" fill="#1E1E1E"/>
</g>
<defs>
<clipPath id="clip0_23_928">
<rect width="181" height="45" fill="white"/>
</clipPath>
</defs>
</svg>
