<svg width="185" height="43" viewBox="0 0 185 43" fill="none" xmlns="http://www.w3.org/2000/svg">
<g clip-path="url(#clip0_23_1004)">
<path d="M34.5374 23.536C34.4731 23.9441 34.3901 24.3457 34.2886 24.7408C37.3493 22.7824 40.0852 20.3672 42.3991 17.581C42.2165 16.6096 41.9651 15.6522 41.6468 14.7157C39.9159 18.1084 37.4955 21.1112 34.5374 23.536Z" fill="#011E41"/>
<path d="M34.6932 21.1732C37.1336 18.5019 39.1232 15.4592 40.5854 12.162C40.1343 11.2511 39.6176 10.3735 39.0393 9.5358C38.2906 13.2493 36.7792 16.7712 34.5986 19.8835C34.6508 20.3075 34.6823 20.7374 34.6932 21.1732Z" fill="#011E41"/>
<path d="M42.7389 20.4921C40.9499 22.9941 37.179 25.5188 33.307 27.3571C33.1246 27.7194 32.9261 28.0718 32.7114 28.4145C36.0297 27.3582 39.1764 25.8338 42.0543 23.8883C41.8103 25.225 41.4099 26.5291 40.8613 27.7744C37.7053 29.2333 34.3477 30.2206 30.8984 30.7039C30.5785 31.0272 30.2421 31.334 29.8905 31.6232C33.1974 31.6134 36.4818 31.0842 39.621 30.0555C38.7866 31.3291 37.7752 32.4801 36.6166 33.475C33.6566 33.731 30.6751 33.5915 27.7527 33.0604C27.376 33.2638 26.9886 33.4494 26.5906 33.6171C28.9548 34.5597 31.4501 35.1415 33.991 35.3426C32.9774 35.9324 31.9104 36.4275 30.804 36.8215C28.5234 36.2086 26.305 35.3888 24.1768 34.3724C23.684 34.4766 23.1857 34.5529 22.6841 34.601C24.4093 35.7546 26.24 36.7456 28.1523 37.561C27.0756 37.7827 25.9801 37.9029 24.8805 37.9202C24.6603 37.9228 24.4407 37.9212 24.2217 37.9153C22.7947 36.911 21.4427 35.8064 20.176 34.6102C19.5668 34.5563 18.962 34.4607 18.3661 34.3244C19.3904 35.5073 20.4945 36.6202 21.6709 37.6555C20.4093 37.4303 19.1779 37.0634 18.0004 36.562C17.3038 35.6066 16.665 34.6112 16.0872 33.5812C15.5149 33.3356 14.9609 33.0504 14.4292 32.7278C14.8506 33.6587 15.3207 34.5674 15.8377 35.4499C14.7092 34.7624 13.6687 33.9429 12.7386 33.0089C12.2729 32.1578 11.8718 31.2735 11.5389 30.3634C10.1973 28.9064 9.20329 27.1702 8.6301 25.2828C8.05692 23.3954 7.91916 21.4047 8.22698 19.4577C8.5348 17.5106 9.28036 15.6566 10.4087 14.0324C11.5371 12.4081 13.0195 11.055 14.7467 10.0728C16.4739 9.09055 18.4019 8.50418 20.3886 8.35688C22.3754 8.20959 24.3702 8.50512 26.2261 9.22172C28.082 9.93831 29.7518 11.0577 31.1123 12.4974C32.4728 13.9371 33.4894 15.6604 34.0872 17.5404C35.6261 14.1386 36.5333 10.4906 36.7652 6.77078C36.0754 6.06223 35.3368 5.40183 34.5546 4.79432C35.0858 8.32151 34.8475 11.9203 33.8558 15.3489C33.4411 14.512 32.9553 13.7115 32.4037 12.956C32.591 9.50851 32.2255 6.05343 31.3206 2.719C30.4403 2.2599 29.5283 1.86259 28.5916 1.53C30.2091 4.68557 31.1546 8.13594 31.3697 11.6676C30.7394 10.9538 30.0551 10.2885 29.3227 9.6774C28.3103 6.47598 26.8675 3.42368 25.033 0.60248C24.1064 0.444441 23.1702 0.346957 22.2306 0.31066C24.436 2.68622 26.2316 5.40417 27.5457 8.35583C26.5926 7.72687 25.5864 7.18029 24.5384 6.72217C22.8757 4.41066 20.938 2.30528 18.7671 0.45137C17.8509 0.561888 16.943 0.731334 16.0491 0.95863C18.2454 2.29471 20.2429 3.92684 21.9841 5.808C20.8599 5.4902 19.7085 5.27588 18.5444 5.16777C16.8529 3.93279 15.0578 2.84303 13.1788 1.9104C12.2774 2.28198 11.4029 2.71448 10.5616 3.20483C12.4276 3.47609 14.2165 4.12736 15.8151 5.11745C14.7725 5.17498 13.737 5.3219 12.7201 5.55656C11.3596 5.11654 9.96929 4.77249 8.55959 4.527C7.74339 5.13429 6.97195 5.79831 6.25111 6.514C7.39486 6.35195 8.55453 6.33099 9.7035 6.4516C7.52773 7.23196 5.47848 8.32164 3.62027 9.68635C1.74922 12.4311 0.55505 15.5717 0.133681 18.8558C-0.287688 22.14 0.0754933 25.4761 1.19405 28.5962C2.3126 31.7163 4.15535 34.5334 6.57426 36.8211C8.99316 39.1089 11.9208 40.8036 15.122 41.7691C18.3231 42.7346 21.7086 42.9439 25.0064 42.3803C28.3042 41.8167 31.4224 40.4958 34.1105 38.5238C36.7985 36.5518 38.9816 33.9836 40.4842 31.0256C41.9869 28.0676 42.7672 24.8022 42.7626 21.4917C42.7626 21.1566 42.7547 20.8234 42.7389 20.4921Z" fill="#011E41"/>
<path d="M94.9495 6.333H91.8702L86.9075 13.208L81.9439 6.333H78.8656L84.9837 14.502L78.8049 22.753H81.8832L86.9075 15.74L91.9308 22.753H95.0101L88.8313 14.502L94.9495 6.333Z" fill="#011E41"/>
<path d="M157.421 16.9342C158.441 16.5436 159.312 15.8471 159.912 14.9423C160.512 14.0375 160.811 12.9697 160.767 11.8885C160.767 8.33071 158.222 6.33309 154.044 6.33309H146.783V22.7532H149.522V17.5536H154.498C156.079 19.0479 157.378 20.8086 158.335 22.7532H161.681C160.578 20.6049 159.14 18.6413 157.421 16.9342ZM149.522 8.74131H153.961C156.396 8.74131 157.945 9.83612 157.945 11.9979C157.945 14.1874 156.424 15.1998 154.127 15.1998H149.522V8.74131Z" fill="#011E41"/>
<path d="M176.174 6.33309H169.977V22.7532H176.174C181.542 22.7532 185 19.4419 185 14.5432C185 9.6443 181.542 6.33309 176.174 6.33309ZM175.981 20.3452H172.716V8.74128H175.981C179.522 8.74128 182.206 10.8211 182.206 14.5432C182.206 18.2651 179.522 20.3452 175.981 20.3452Z" fill="#011E41"/>
<path d="M63.4296 5.938C61.1077 5.93125 58.8764 6.82844 57.2178 8.43569C55.5592 10.0429 54.6064 12.2312 54.5654 14.5276C54.6132 16.8218 55.5681 19.0061 57.2252 20.6119C58.8823 22.2177 61.1097 23.1171 63.4295 23.1171C65.7493 23.1171 67.9766 22.2177 69.6338 20.6119C71.2909 19.0061 72.2458 16.8218 72.2935 14.5276C72.2526 12.2312 71.2999 10.043 69.6413 8.43571C67.9827 6.82846 65.7514 5.93127 63.4296 5.938ZM63.4296 20.6392C61.7821 20.6408 60.2003 20.0002 59.027 18.8562C57.8536 17.7123 57.1831 16.1571 57.1608 14.5276C57.1845 12.8984 57.8553 11.3439 59.0284 10.2001C60.2014 9.05626 61.7824 8.41504 63.4296 8.41504C65.0767 8.41504 66.6577 9.05626 67.8308 10.2001C69.0038 11.3439 69.6747 12.8984 69.6983 14.5276C69.676 16.1571 69.0055 17.7123 67.8322 18.8562C66.6588 20.0002 65.077 20.6408 63.4296 20.6392Z" fill="#011E41"/>
<path d="M129.857 5.938C127.535 5.93126 125.303 6.82845 123.645 8.43569C121.986 10.0429 121.033 12.2312 120.992 14.5276C121.04 16.8218 121.995 19.0061 123.652 20.6119C125.309 22.2177 127.537 23.1171 129.856 23.1171C132.176 23.1171 134.404 22.2177 136.061 20.6119C137.718 19.0061 138.673 16.8218 138.721 14.5276C138.68 12.2312 137.727 10.043 136.068 8.43571C134.41 6.82846 132.178 5.93127 129.857 5.938ZM129.857 20.6392C128.209 20.6408 126.627 20.0002 125.454 18.8563C124.281 17.7123 123.61 16.1571 123.588 14.5276C123.612 12.8986 124.283 11.3443 125.456 10.2008C126.629 9.05716 128.21 8.41609 129.857 8.41609C131.504 8.41609 133.084 9.05716 134.257 10.2008C135.43 11.3443 136.101 12.8986 136.125 14.5276C136.103 16.1571 135.432 17.7123 134.259 18.8562C133.086 20.0001 131.504 20.6408 129.857 20.6392Z" fill="#011E41"/>
<path d="M102.377 22.7532H105.116V16.8405H113.11C113.604 16.1114 113.997 15.3195 114.277 14.4863H105.116V8.7412H115.258V6.33309H102.377L102.377 22.7532Z" fill="#011E41"/>
<path d="M157.404 32.0198C157.404 30.5162 156.316 29.694 154.542 29.694H151.455V36.6347H152.626V34.4502H154.71C155.373 35.0788 155.918 35.8184 156.32 36.6347H157.754C157.291 35.7333 156.688 34.9088 155.968 34.1909C156.411 34.0278 156.788 33.7291 157.047 33.3385C157.305 32.9479 157.43 32.4858 157.404 32.0198ZM154.495 33.4436H152.626V30.7118H154.495C155.536 30.7118 156.21 31.1522 156.21 32.0661C156.21 33.0495 155.548 33.4436 154.495 33.4436Z" fill="#011E41"/>
<path d="M61.2517 33.6966C61.2658 33.9542 61.2267 34.2119 61.1368 34.454C61.0469 34.6961 60.9081 34.9176 60.7288 35.1049C60.5494 35.2921 60.3334 35.4413 60.0939 35.5432C59.8544 35.6451 59.5963 35.6977 59.3356 35.6977C59.0748 35.6977 58.8168 35.6451 58.5773 35.5432C58.3378 35.4413 58.1217 35.2921 57.9424 35.1049C57.7631 34.9176 57.6243 34.6961 57.5343 34.454C57.4444 34.2119 57.4054 33.9542 57.4195 33.6966V29.694H56.2486V33.6967C56.22 34.1081 56.2803 34.5208 56.4254 34.9074C56.5706 35.294 56.7972 35.6456 57.0904 35.9389C57.3835 36.2321 57.7364 36.4603 58.1255 36.6082C58.5147 36.7561 58.9312 36.8204 59.3474 36.7968C59.7629 36.8219 60.1791 36.7585 60.5677 36.6108C60.9563 36.4631 61.3083 36.2345 61.5999 35.9406C61.8914 35.6467 62.1158 35.2942 62.2577 34.9071C62.3997 34.5199 62.4559 34.1072 62.4226 33.6967V29.694H61.2517V33.6966Z" fill="#011E41"/>
<path d="M170.738 31.4298C170.738 30.9402 171.185 30.5939 172.084 30.5939C172.799 30.6196 173.493 30.8346 174.095 31.2164L174.699 30.2742C173.922 29.7936 173.024 29.5384 172.107 29.5376C170.583 29.5376 169.482 30.2255 169.482 31.4942C169.482 34.0979 173.658 33.1939 173.658 34.7572C173.658 35.2929 173.083 35.7344 172.283 35.7344C171.412 35.7271 170.575 35.3986 169.936 34.8133L169.288 35.7172C170.12 36.4121 171.174 36.7925 172.263 36.7909C173.765 36.7909 174.949 35.9377 174.949 34.6978C174.959 32.2202 170.738 32.9699 170.738 31.4298Z" fill="#011E41"/>
<path d="M109.026 31.4298C109.026 30.9402 109.474 30.5939 110.373 30.5939C111.087 30.6196 111.782 30.8346 112.383 31.2164L112.988 30.2742C112.21 29.7936 111.312 29.5384 110.395 29.5376C108.871 29.5376 107.77 30.2255 107.77 31.4942C107.77 34.0979 111.946 33.1939 111.946 34.7572C111.946 35.2929 111.371 35.7344 110.571 35.7344C109.701 35.7271 108.864 35.3986 108.225 34.8133L107.576 35.7172C108.409 36.412 109.463 36.7925 110.552 36.7909C112.054 36.7909 113.237 35.9377 113.237 34.6978C113.247 32.2202 109.026 32.9699 109.026 31.4298Z" fill="#011E41"/>
<path d="M179.106 31.4298C179.106 30.9402 179.553 30.5939 180.452 30.5939C181.167 30.6196 181.861 30.8346 182.463 31.2164L183.067 30.2742C182.29 29.7936 181.392 29.5384 180.475 29.5376C178.951 29.5376 177.85 30.2255 177.85 31.4942C177.85 34.0979 182.026 33.1939 182.026 34.7572C182.026 35.2929 181.45 35.7344 180.651 35.7344C179.78 35.7271 178.943 35.3986 178.304 34.8133L177.656 35.7172C178.488 36.4121 179.542 36.7925 180.631 36.7909C182.133 36.7909 183.317 35.9377 183.317 34.6978C183.327 32.2202 179.106 32.9699 179.106 31.4298Z" fill="#011E41"/>
<path d="M70.8106 34.677L66.5799 29.694H65.5952V36.635H66.7659V31.582L70.9966 36.635H71.9813V29.694H70.8106V34.677Z" fill="#011E41"/>
<path d="M76.8134 29.694H75.6426V36.6347H76.8134V29.694Z" fill="#011E41"/>
<path d="M117.84 29.694H116.669V36.6347H117.84V29.694Z" fill="#011E41"/>
<path d="M120.847 30.712H123.236V36.635H124.407V30.712H126.797V29.694H120.847V30.712Z" fill="#011E41"/>
<path d="M104.591 32.0198C104.591 30.5162 103.503 29.694 101.729 29.694H98.6421V36.6347H99.8131V34.4502H101.897C102.559 35.0788 103.104 35.8184 103.507 36.6347H104.941C104.478 35.7333 103.875 34.9088 103.155 34.1909C103.597 34.0277 103.975 33.7291 104.233 33.3385C104.492 32.9479 104.617 32.4858 104.591 32.0198ZM101.682 33.4436H99.8131V30.7118H101.682C102.723 30.7118 103.397 31.1522 103.397 32.0661C103.397 33.0495 102.735 33.4436 101.682 33.4436Z" fill="#011E41"/>
<path d="M132.492 32.9225C131.785 31.8867 131.143 30.8085 130.571 29.694H129.21C130.019 31.2139 130.92 32.6844 131.907 34.0974V36.6347H133.078V34.0974C134.065 32.6844 134.966 31.214 135.774 29.694H134.414C133.842 30.8085 133.2 31.8867 132.492 32.9225Z" fill="#011E41"/>
<path d="M83.3814 35.3352C82.4582 33.5262 81.703 31.6381 81.1251 29.694H79.8516C80.5732 32.0987 81.5409 34.4243 82.7397 36.6347H83.9538C85.1526 34.4243 86.1202 32.0987 86.8418 29.694H85.6378C85.0599 31.6381 84.3047 33.5262 83.3814 35.3352Z" fill="#011E41"/>
<path d="M89.8799 36.6347H95.2612V35.6171H91.0507V33.6405H94.3702C94.572 33.3386 94.7328 33.0118 94.8484 32.6684H91.0507V30.7118H95.2612V29.694H89.8799V36.6347Z" fill="#011E41"/>
<path d="M160.925 36.6347H166.306V35.6171H162.095V33.6405H165.415C165.617 33.3386 165.777 33.0118 165.893 32.6684H162.095V30.7118H166.306V29.694H160.925V36.6347Z" fill="#011E41"/>
<path d="M145.353 29.694H142.266V36.6347H143.437V30.7118H145.306C146.347 30.7118 147.021 31.1746 147.021 32.0885C147.021 33.0719 146.359 33.4883 145.306 33.4883H144.246L143.795 34.4949H145.282C147.032 34.4949 148.215 33.6389 148.215 32.0421C148.215 30.5386 147.127 29.694 145.353 29.694Z" fill="#011E41"/>
</g>
<defs>
<clipPath id="clip0_23_1004">
<rect width="185" height="43" fill="white"/>
</clipPath>
</defs>
</svg>
