<svg width="18" height="18" viewBox="0 0 18 18" fill="none" xmlns="http://www.w3.org/2000/svg">
<path d="M13.4389 10.74C13.2447 10.9282 13.1554 11.2005 13.1997 11.4675L13.8664 15.1575C13.9227 15.4702 13.7907 15.7868 13.5289 15.9675C13.2724 16.155 12.9312 16.1775 12.6514 16.0275L9.32966 14.295C9.21416 14.2335 9.08591 14.2005 8.95466 14.1968H8.75141C8.68091 14.2073 8.61191 14.2297 8.54891 14.2642L5.22641 16.005C5.06216 16.0875 4.87616 16.1168 4.69391 16.0875C4.24991 16.0035 3.95366 15.5805 4.02641 15.1343L4.69391 11.4443C4.73816 11.175 4.64891 10.9012 4.45466 10.71L1.74641 8.085C1.51991 7.86525 1.44116 7.53525 1.54466 7.2375C1.64516 6.9405 1.90166 6.72375 2.21141 6.675L5.93891 6.13425C6.22241 6.105 6.47141 5.9325 6.59891 5.6775L8.24141 2.31C8.28041 2.235 8.33066 2.166 8.39141 2.1075L8.45891 2.055C8.49416 2.016 8.53466 1.98375 8.57966 1.9575L8.66141 1.9275L8.78891 1.875H9.10466C9.38666 1.90425 9.63491 2.073 9.76466 2.325L11.4289 5.6775C11.5489 5.92275 11.7822 6.093 12.0514 6.13425L15.7789 6.675C16.0939 6.72 16.3572 6.9375 16.4614 7.2375C16.5597 7.53825 16.4749 7.86825 16.2439 8.085L13.4389 10.74Z" fill="#FFC400"/>
</svg>
