<svg width="183" height="41" viewBox="0 0 183 41" fill="none" xmlns="http://www.w3.org/2000/svg">
<g clip-path="url(#clip0_23_1030)">
<path fill-rule="evenodd" clip-rule="evenodd" d="M97.8255 28.05C95.8365 30.0575 93.4587 31.0675 90.7011 31.0675C88.471 31.0675 86.5767 30.615 84.6432 29.4962V24.8912C86.1981 25.9412 88.1517 26.9412 90.0802 26.9412C94.1011 26.9412 96.4953 24.1875 96.4953 20.2825C96.4953 16.375 94.0191 13.5387 89.9956 13.5387C88.1997 13.5387 86.7433 14.1812 85.6049 15.47C84.3857 16.8662 83.7547 18.8625 83.7547 21.5V39.6837H83.4518C82.9236 39.6824 82.4008 39.5781 81.9133 39.3767C81.4258 39.1753 80.9832 38.8807 80.6106 38.5099C80.2381 38.139 79.9429 37.6991 79.742 37.2153C79.5411 36.7314 79.4384 36.2132 79.4397 35.69V20.8187C79.4397 14.5075 83.3155 9.4125 89.978 9.4125C93.2656 9.4125 95.9374 10.5312 97.9631 12.7812C99.8675 14.8825 100.81 17.545 100.81 20.75C100.81 23.6 99.8145 26.0387 97.8255 28.05ZM144.55 27.895C142.568 30.0112 140.019 31.0675 136.929 31.0675C133.667 31.0675 131.008 29.9475 128.985 27.6987C127.082 25.5712 126.137 22.9062 126.137 19.7312C126.137 14.11 130.495 9.4125 136.232 9.4125C138.444 9.4125 140.365 9.8775 142.305 10.9375V15.5875C140.75 14.5375 138.796 13.5375 136.868 13.5375C132.847 13.5375 130.451 16.2925 130.451 20.1987C130.451 24.0512 132.985 26.9425 136.951 26.9425C138.746 26.9425 140.225 26.2725 141.406 24.9237C142.582 23.5825 143.193 21.6125 143.193 18.9675V4.49375C143.192 3.9706 143.294 3.45231 143.495 2.96847C143.696 2.48464 143.991 2.04473 144.364 1.67388C144.737 1.30303 145.179 1.00848 145.667 0.807068C146.154 0.605654 146.677 0.501312 147.205 0.5L147.508 0.5V19.6462C147.508 23.0175 146.529 25.7775 144.55 27.895ZM156.735 7.36875C156.282 7.87375 155.633 8.10625 154.842 8.10625C153.36 8.10625 152.3 7.01875 152.3 5.555C152.3 4.0575 153.34 3.04625 154.841 3.04625C156.286 3.04625 157.383 4.1125 157.383 5.555C157.383 6.2675 157.173 6.88125 156.735 7.36875ZM178.662 18.9675C178.662 17.2737 178.019 15.9325 176.726 14.9175C175.561 14.0037 174.106 13.5387 172.336 13.5387C168.429 13.5387 165.922 16.5775 165.922 20.3262C165.922 23.9325 168.581 26.9425 172.295 26.9425C174.879 26.9425 176.259 25.44 177.733 23.5675V28.9637C176.982 29.5237 176.119 30.135 175.238 30.4925C174.308 30.88 173.198 31.0675 171.914 31.0675C165.703 31.0675 161.607 25.9462 161.607 20.0287C161.607 16.99 162.555 14.4775 164.464 12.5187C166.49 10.4425 169.146 9.4125 172.4 9.4125C178.566 9.4125 182.979 12.9375 182.979 19.3062V30.6437H182.676C182.147 30.6424 181.624 30.5381 181.137 30.3366C180.649 30.1351 180.206 29.8405 179.834 29.4695C179.461 29.0985 179.166 28.6585 178.965 28.1745C178.764 27.6905 178.661 27.1721 178.662 26.6487V18.9675ZM119.587 17.75C119.042 16.0712 118.358 15.245 116.786 14.3712C113.046 12.2912 109.365 14.0625 107.653 17.7337L119.587 17.75ZM116.295 31.0037C113.538 31.5875 110.834 31.1375 108.195 29.67C105.62 28.2387 103.897 26.1112 103.033 23.2987C101.286 17.6112 104.864 11.2737 110.62 9.74C113.473 8.97875 116.209 9.32375 118.807 10.7687C123.124 13.1712 124.696 16.8862 124.422 21.6737L107.036 21.6375C107.292 23.59 108.508 25.1175 110.216 26.0675C111.951 27.0312 113.543 27.2625 115.021 26.805C116.662 26.2925 117.995 24.9587 119.077 23.7175L122.62 26.2875C121.175 28.8625 119.207 30.3875 116.295 31.0037ZM152.684 9.8375H156.999V30.6437H156.696C156.168 30.6424 155.645 30.5381 155.157 30.3366C154.67 30.1351 154.227 29.8404 153.854 29.4694C153.482 29.0984 153.187 28.6584 152.986 28.1744C152.785 27.6904 152.682 27.172 152.684 26.6487V9.8375ZM6.31541 30.6425C2.09379 30.6425 1.27011e-05 27.785 1.27011e-05 23.795V8.65375C-0.00131486 8.13043 0.101441 7.61198 0.302414 7.12799C0.503387 6.64401 0.798641 6.20397 1.17132 5.833C1.544 5.46203 1.9868 5.16739 2.47444 4.96591C2.96209 4.76444 3.48502 4.66006 4.01339 4.65875H4.31629V9.8375H11.6073V13.9625H4.31629V24.2725C4.31629 26.025 5.1013 26.5175 6.7849 26.5175H11.606V30.6425H6.31541ZM31.3776 28.0137C29.2447 30.0475 26.6827 31.0675 23.7067 31.0675C20.7573 31.0675 18.2091 30.0462 16.0775 28.0137C13.9383 25.9712 12.8719 23.3725 12.8719 20.24C12.8719 14.13 17.5592 9.4125 23.7067 9.4125C26.6562 9.4125 29.2119 10.4412 31.3561 12.49C33.5092 14.5437 34.5845 17.135 34.5845 20.24C34.5845 23.3725 33.5168 25.9712 31.3788 28.0137H31.3776ZM51.5555 14.8437C50.922 15.9 50.431 16.6587 50.0852 17.1162C49.7053 17.6137 49.3292 18.0112 48.9569 18.2862C51.9556 19.2512 53.0725 21.3187 53.0725 24.4V30.6425H52.7696C51.7028 30.6398 50.6806 30.2176 49.928 29.4687C49.1754 28.7198 48.7539 27.7054 48.7563 26.6487V24.8237C48.7563 22.8287 47.8577 21.475 45.7349 21.475H41.8124V30.6425H41.5095C40.4429 30.6395 39.4212 30.2171 38.6691 29.4682C37.917 28.7192 37.4959 27.7051 37.4986 26.6487V4.49375C37.4971 3.97065 37.5997 3.45239 37.8005 2.96857C38.0012 2.48474 38.2963 2.04483 38.6687 1.67396C39.0412 1.30309 39.4838 1.00852 39.9712 0.807093C40.4586 0.605662 40.9813 0.501311 41.5095 0.5L41.8124 0.5V17.3075H43.0883C44.4892 17.3075 45.4105 16.83 45.9406 15.9275L49.564 9.83875L54.4823 9.83375L51.553 14.8437H51.5555ZM73.831 28.0137C71.6982 30.0475 69.1362 31.0675 66.1602 31.0675C63.2107 31.0675 60.6639 30.0462 58.531 28.0137C56.3918 25.9712 55.3253 23.3725 55.3253 20.24C55.3253 14.13 60.0127 9.4125 66.1602 9.4125C69.1109 9.4125 71.6653 10.4412 73.8109 12.49C75.9627 14.5437 77.038 17.135 77.038 20.24C77.038 23.3725 75.969 25.9712 73.831 28.0137ZM70.7163 15.3987C69.5274 14.16 68.0167 13.5387 66.1602 13.5387C62.1885 13.5387 59.812 16.42 59.812 20.24C59.812 24.0075 62.2453 26.9425 66.1602 26.9425C70.0764 26.9425 72.5084 24.0075 72.5084 20.24C72.5084 18.24 71.9051 16.635 70.7163 15.3987ZM28.264 15.3987C27.0752 14.16 25.5632 13.5387 23.708 13.5387C19.7362 13.5387 17.3598 16.42 17.3598 20.24C17.3598 24.0075 19.793 26.9425 23.708 26.9425C27.6229 26.9425 30.0562 24.0075 30.0562 20.24C30.0562 18.24 29.4529 16.635 28.264 15.3987Z" fill="#03AC0E"/>
</g>
<defs>
<clipPath id="clip0_23_1030">
<rect width="183" height="40" fill="white" transform="translate(0 0.5)"/>
</clipPath>
</defs>
</svg>
